<svg width="24" height="24" viewBox="0 0 24 24" fill="none" xmlns="http://www.w3.org/2000/svg">
<g id="vuesax/bulk/password-check">
<g id="password-check">
<path id="Vector" d="M15 22C14.59 22 14.25 21.66 14.25 21.25V2.75C14.25 2.34 14.59 2 15 2C15.41 2 15.75 2.34 15.75 2.75V21.25C15.75 21.66 15.41 22 15 22Z" fill="url(#paint0_linear_1523_7977)"/>
<path id="Vector_2" opacity="0.4" d="M6.5 20H12.5V4H6.5C4.29 4 2.5 5.79 2.5 8V16C2.5 18.21 4.29 20 6.5 20Z" fill="url(#paint1_linear_1523_7977)"/>
<path id="Vector_3" opacity="0.4" d="M18 20H15V4H18C20.21 4 22 5.79 22 8V16C22 18.21 20.21 20 18 20Z" fill="url(#paint2_linear_1523_7977)"/>
<path id="Vector_4" d="M5.75 13C5.62 13 5.49 12.97 5.37 12.92C5.25 12.87 5.14 12.8 5.04 12.71C4.95 12.61 4.88 12.5 4.82 12.38C4.77 12.26 4.75 12.13 4.75 12C4.75 11.74 4.86 11.48 5.04 11.29C5.09 11.25 5.14 11.21 5.19 11.17C5.25 11.13 5.31 11.1 5.37 11.08C5.43 11.05 5.49 11.03 5.55 11.02C5.89 10.95 6.23 11.06 6.46 11.29C6.64 11.48 6.75 11.74 6.75 12C6.75 12.13 6.72 12.26 6.67 12.38C6.62 12.5 6.55 12.61 6.46 12.71C6.36 12.8 6.25 12.87 6.13 12.92C6.01 12.97 5.88 13 5.75 13Z" fill="url(#paint3_linear_1523_7977)"/>
<path id="Vector_5" d="M9.25 13C9.12 13 8.99 12.97 8.87 12.92C8.75 12.87 8.64 12.8 8.54 12.71C8.35 12.52 8.25 12.27 8.25 12C8.25 11.87 8.28 11.74 8.33 11.62C8.38 11.49 8.45 11.39 8.54 11.29C8.91 10.92 9.58 10.92 9.96 11.29C10.14 11.48 10.25 11.74 10.25 12C10.25 12.13 10.22 12.26 10.17 12.38C10.12 12.5 10.05 12.61 9.96 12.71C9.86 12.8 9.75 12.87 9.63 12.92C9.51 12.97 9.38 13 9.25 13Z" fill="url(#paint4_linear_1523_7977)"/>
</g>
</g>
<defs>
<linearGradient id="paint0_linear_1523_7977" x1="15" y1="2" x2="15" y2="18.1429" gradientUnits="userSpaceOnUse">
<stop stop-color="#FFAD68"/>
<stop offset="1" stop-color="#ED853A"/>
<stop offset="1" stop-color="#AE4900"/>
</linearGradient>
<linearGradient id="paint1_linear_1523_7977" x1="7.5" y1="4" x2="7.5" y2="16.9143" gradientUnits="userSpaceOnUse">
<stop stop-color="#FFAD68"/>
<stop offset="1" stop-color="#ED853A"/>
<stop offset="1" stop-color="#AE4900"/>
</linearGradient>
<linearGradient id="paint2_linear_1523_7977" x1="18.5" y1="4" x2="18.5" y2="16.9143" gradientUnits="userSpaceOnUse">
<stop stop-color="#FFAD68"/>
<stop offset="1" stop-color="#ED853A"/>
<stop offset="1" stop-color="#AE4900"/>
</linearGradient>
<linearGradient id="paint3_linear_1523_7977" x1="5.75" y1="10.9991" x2="5.75" y2="12.6141" gradientUnits="userSpaceOnUse">
<stop stop-color="#FFAD68"/>
<stop offset="1" stop-color="#ED853A"/>
<stop offset="1" stop-color="#AE4900"/>
</linearGradient>
<linearGradient id="paint4_linear_1523_7977" x1="9.25" y1="11.0125" x2="9.25" y2="12.6167" gradientUnits="userSpaceOnUse">
<stop stop-color="#FFAD68"/>
<stop offset="1" stop-color="#ED853A"/>
<stop offset="1" stop-color="#AE4900"/>
</linearGradient>
</defs>
</svg>
