
<svg width="28" height="28" viewBox="0 0 28 28" fill="none" xmlns="http://www.w3.org/2000/svg">
<rect width="28" height="28" rx="14" fill="url(#paint0_linear_2368_24666)"/>
<path d="M13.999 24.706C3.08916 20.9024 4.14495 8.81605 4.14495 8.81605C4.34387 21.3576 13.999 24.0157 13.999 24.0157C13.999 24.0157 23.6542 21.3429 23.8531 8.81605C23.8531 8.81605 24.9242 20.9024 13.999 24.706Z" fill="white"/>
<path d="M23.6085 7.6117C16.2791 8.72783 13.9992 4.51303 13.9992 4.51303C13.9992 4.51303 11.7346 8.72783 4.40527 7.6117C4.40527 7.6117 11.857 8.06695 14.0145 3.29412C16.1567 8.06695 23.6085 7.6117 23.6085 7.6117Z" fill="white"/>
<path d="M22.3685 8.8159C22.3685 8.8159 22.1084 8.83059 21.6799 8.83059C20.058 8.83059 15.9572 8.53688 13.9986 5.77596C12.04 8.53688 7.9393 8.83059 6.31735 8.83059C5.88891 8.83059 5.62878 8.8159 5.62878 8.8159C5.62878 8.8159 4.80251 15.6301 9.69894 20.2414C9.83665 20.3882 9.98968 20.5204 10.158 20.6526C10.8465 21.24 11.6422 21.7834 12.545 22.268C12.8357 22.4149 13.1417 22.5617 13.4478 22.7086C13.6314 22.782 13.7997 22.8701 13.9833 22.9435C14.167 22.8701 14.3506 22.7967 14.5189 22.7086C14.8402 22.5617 15.1309 22.4149 15.4217 22.268C16.4622 21.7246 17.3343 21.0931 18.0841 20.4176C18.2371 20.2707 18.3901 20.1239 18.5431 19.977C23.1641 15.3657 22.3685 8.8159 22.3685 8.8159ZM21.1903 14.3084C20.7006 15.9972 19.9203 17.4951 18.8645 18.7581C18.7727 18.8756 18.6808 18.9784 18.5737 19.0959V13.4272L19.4765 13.0601V10.4166C19.4765 10.4166 19.4765 10.4166 19.4612 10.4166C19.3235 10.3579 19.1705 10.2992 19.0175 10.2404V12.5461C18.4666 12.3698 17.5332 12.1496 16.2173 12.0614C15.8807 12.0321 15.5135 12.0174 15.1309 12.0174C15.0697 12.0174 15.0238 12.0174 14.9626 12.0174C15.0085 12.0174 15.0697 12.0321 15.1309 12.0321C15.2227 12.0467 15.3298 12.0467 15.4217 12.0614C17.0589 12.2523 18.1912 12.6195 18.8033 12.8398L18.4054 13.0013L18.13 13.1188V19.5658C17.013 20.6819 15.6665 21.5778 14.0904 22.2533C14.0598 22.268 14.0445 22.268 14.0139 22.2827V19.3749H13.0652V16.2322C13.0652 15.7035 13.4784 15.2629 14.0139 15.1895C14.0598 15.1895 14.1057 15.1748 14.1516 15.1748C14.7637 15.1748 15.2533 15.6448 15.2533 16.2322V19.4043H15.8654V16.2322C15.8654 15.3216 15.1003 14.5874 14.1516 14.5874C14.1057 14.5874 14.0598 14.5874 14.0139 14.5874V9.40332C13.7844 9.40332 13.5549 9.41802 13.3254 9.41802V10.6369C12.9581 10.6516 12.5909 10.681 12.2237 10.725V9.50613C11.8105 9.55019 11.428 9.62361 11.0455 9.69704V10.9306C10.6629 11.0041 10.2957 11.1069 9.94376 11.2097V9.99075C9.54594 10.1082 9.1634 10.2551 8.81148 10.4019V12.781C8.81148 12.781 9.94376 12.2377 12.2237 12.0761C12.5603 12.0467 12.9275 12.0321 13.3254 12.0321C13.3713 12.0321 13.4325 12.0321 13.4937 12.0321C13.4325 12.0321 13.3866 12.0467 13.3254 12.0467C13.2336 12.0614 13.1265 12.0614 13.0346 12.0761C10.5099 12.3845 9.1634 13.0748 9.1634 13.0748L9.71426 13.4419V19.419C9.51533 19.2134 9.33172 18.9931 9.14809 18.7728C8.10759 17.5098 7.32723 16.0119 6.82229 14.323C6.19494 12.223 6.17963 10.3285 6.21024 9.43271C6.24084 9.43271 6.28674 9.43271 6.31735 9.43271C7.9393 9.43271 11.7646 9.15367 13.9986 6.74521C16.2326 9.15367 20.058 9.43271 21.6799 9.43271C21.7105 9.43271 21.7564 9.43271 21.787 9.43271C21.8329 10.3139 21.8023 12.2083 21.1903 14.3084Z" fill="white"/>
<path d="M15.4525 22.2682C15.1618 22.415 14.8558 22.5619 14.5497 22.7087H13.4633C13.142 22.5619 12.8513 22.415 12.5605 22.2682H15.4525Z" fill="white"/>
<path opacity="0.69" d="M16.7229 10.7985C16.4475 10.7544 16.1567 10.7251 15.8507 10.6957C15.7742 10.6957 15.6824 10.681 15.6059 10.681C15.361 10.6663 15.1009 10.6516 14.8408 10.6369V9.40333C15.1774 9.41803 15.5141 9.4327 15.8507 9.46209V10.4901L16.7229 10.7985Z" fill="white"/>
<path opacity="0.69" d="M18.5744 11.1953C18.4214 11.1512 18.2531 11.1071 18.0848 11.0631C18.0541 11.0631 18.0235 11.0484 17.9929 11.0484C17.7175 10.975 17.4115 10.9162 17.1055 10.8722V9.63857C17.4421 9.6973 17.7634 9.75605 18.0694 9.84417V10.9162C18.1919 10.9603 18.4214 11.1071 18.5744 11.1953Z" fill="white"/>
<defs>
<linearGradient id="paint0_linear_2368_24666" x1="14" y1="0" x2="14" y2="28" gradientUnits="userSpaceOnUse">
<stop stop-color="#1B86FF"/>
<stop offset="1" stop-color="#0253C0"/>
</linearGradient>
</defs>
</svg>
