
<svg width="16" height="16" viewBox="0 0 16 16" fill="none" xmlns="http://www.w3.org/2000/svg">
<g id="vuesax/bold/dislike">
<g id="dislike">
<path id="Vector" d="M10.4064 3.66666V10.44C10.4064 10.7067 10.3264 10.9667 10.1797 11.1867L8.35968 13.8933C8.07302 14.3267 7.35968 14.6333 6.75302 14.4067C6.09968 14.1867 5.66635 13.4533 5.80635 12.8L6.15302 10.62C6.17968 10.42 6.12635 10.24 6.01302 10.1C5.89969 9.97333 5.73302 9.89333 5.55302 9.89333H2.81302C2.28635 9.89333 1.83302 9.68 1.56635 9.30666C1.31302 8.94666 1.26635 8.48 1.43302 8.00666L3.07302 3.01333C3.27968 2.18666 4.17969 1.51333 5.07302 1.51333H7.67302C8.11969 1.51333 8.74635 1.66666 9.03302 1.95333L9.88635 2.61333C10.213 2.86666 10.4064 3.25333 10.4064 3.66666Z" fill="#FF4D4F"/>
<path id="Vector_2" d="M12.5266 11.74H13.2132C14.2466 11.74 14.6666 11.34 14.6666 10.3533V3.65334C14.6666 2.66667 14.2466 2.26667 13.2132 2.26667H12.5266C11.4932 2.26667 11.0732 2.66667 11.0732 3.65334V10.36C11.0732 11.34 11.4932 11.74 12.5266 11.74Z" fill="#FF4D4F"/>
</g>
</g>
</svg>
