<svg width="24" height="24" viewBox="0 0 24 24" fill="none" xmlns="http://www.w3.org/2000/svg">
<path d="M21.5 10.9V4.1C21.5 2.6 20.86 2 19.27 2H15.23C13.64 2 13 2.6 13 4.1V10.9C13 12.4 13.64 13 15.23 13H19.27C20.86 13 21.5 12.4 21.5 10.9Z" fill="url(#paint0_linear_822_17783)"/>
<path d="M11 13.1V19.9C11 21.4 10.36 22 8.77 22H4.73C3.14 22 2.5 21.4 2.5 19.9V13.1C2.5 11.6 3.14 11 4.73 11H8.77C10.36 11 11 11.6 11 13.1Z" fill="url(#paint1_linear_822_17783)"/>
<path opacity="0.4" d="M21.5 19.9V17.1C21.5 15.6 20.86 15 19.27 15H15.23C13.64 15 13 15.6 13 17.1V19.9C13 21.4 13.64 22 15.23 22H19.27C20.86 22 21.5 21.4 21.5 19.9Z" fill="url(#paint2_linear_822_17783)"/>
<path opacity="0.4" d="M11 6.9V4.1C11 2.6 10.36 2 8.77 2H4.73C3.14 2 2.5 2.6 2.5 4.1V6.9C2.5 8.4 3.14 9 4.73 9H8.77C10.36 9 11 8.4 11 6.9Z" fill="#6078A9"/>
<defs>
<linearGradient id="paint0_linear_822_17783" x1="17.25" y1="2" x2="17.25" y2="10.8786" gradientUnits="userSpaceOnUse">
<stop stop-color="#FFAD68"/>
<stop offset="1" stop-color="#ED853A"/>
<stop offset="1" stop-color="#AE4900"/>
</linearGradient>
<linearGradient id="paint1_linear_822_17783" x1="6.75" y1="11" x2="6.75" y2="22" gradientUnits="userSpaceOnUse">
<stop stop-color="#1B86FF"/>
<stop offset="1" stop-color="#0253C0"/>
</linearGradient>
<linearGradient id="paint2_linear_822_17783" x1="17.25" y1="15" x2="17.25" y2="20.65" gradientUnits="userSpaceOnUse">
<stop stop-color="#FFAD68"/>
<stop offset="1" stop-color="#ED853A"/>
<stop offset="1" stop-color="#AE4900"/>
</linearGradient>
</defs>
</svg>
