<svg width="24" height="24" viewBox="0 0 24 24" fill="none" xmlns="http://www.w3.org/2000/svg">
<path opacity="0.4" d="M9.9598 2.11001L4.4598 4.17001C3.4098 4.57001 2.5498 5.81001 2.5498 6.94001V15.04C2.5498 15.85 3.0798 16.92 3.7298 17.4L9.2298 21.51C10.1998 22.24 11.7898 22.24 12.7598 21.51L18.2598 17.4C18.9098 16.91 19.4398 15.85 19.4398 15.04V6.94001C19.4398 5.82001 18.5798 4.57001 17.5298 4.18001L12.0298 2.12001C11.4698 1.90001 10.5298 1.90001 9.9598 2.11001Z" fill="url(#paint0_linear_1077_419)"/>
<path d="M16 11.51C13.52 11.51 11.5 13.53 11.5 16.01C11.5 18.49 13.52 20.51 16 20.51C18.48 20.51 20.5 18.49 20.5 16.01C20.5 13.52 18.48 11.51 16 11.51Z" fill="url(#paint1_linear_1077_419)"/>
<path d="M21 22C20.73 22 20.48 21.89 20.29 21.71C20.25 21.66 20.2 21.61 20.17 21.55C20.13 21.5 20.1 21.44 20.08 21.38C20.05 21.32 20.03 21.26 20.02 21.2C20.01 21.13 20 21.07 20 21C20 20.87 20.03 20.74 20.08 20.62C20.13 20.49 20.2 20.39 20.29 20.29C20.52 20.06 20.87 19.95 21.19 20.02C21.26 20.03 21.32 20.05 21.38 20.08C21.44 20.1 21.5 20.13 21.55 20.17C21.61 20.2 21.66 20.25 21.71 20.29C21.8 20.39 21.87 20.49 21.92 20.62C21.97 20.74 22 20.87 22 21C22 21.26 21.89 21.52 21.71 21.71C21.66 21.75 21.61 21.79 21.55 21.83C21.5 21.87 21.44 21.9 21.38 21.92C21.32 21.95 21.26 21.97 21.19 21.98C21.13 21.99 21.06 22 21 22Z" fill="url(#paint2_linear_1077_419)"/>
<defs>
<linearGradient id="paint0_linear_1077_419" x1="10.9948" y1="1.95374" x2="10.9948" y2="22.0575" gradientUnits="userSpaceOnUse">
<stop stop-color="#1B86FF"/>
<stop offset="1" stop-color="#0253C0"/>
</linearGradient>
<linearGradient id="paint1_linear_1077_419" x1="16" y1="11.51" x2="16" y2="18.7743" gradientUnits="userSpaceOnUse">
<stop stop-color="#FFAD68"/>
<stop offset="1" stop-color="#ED853A"/>
<stop offset="1" stop-color="#AE4900"/>
</linearGradient>
<linearGradient id="paint2_linear_1077_419" x1="21" y1="19.9991" x2="21" y2="21.6141" gradientUnits="userSpaceOnUse">
<stop stop-color="#FFAD68"/>
<stop offset="1" stop-color="#ED853A"/>
<stop offset="1" stop-color="#AE4900"/>
</linearGradient>
</defs>
</svg>
