
<svg width="16" height="16" viewBox="0 0 16 16" fill="none" xmlns="http://www.w3.org/2000/svg">
<g id="vuesax/linear/like">
<g id="like">
<path id="Vector" d="M4.9873 12.2333L7.05397 13.8333C7.32064 14.1 7.92064 14.2333 8.32064 14.2333H10.854C11.654 14.2333 12.5206 13.6333 12.7206 12.8333L14.3206 7.96667C14.654 7.03333 14.054 6.23333 13.054 6.23333H10.3873C9.98731 6.23333 9.65397 5.9 9.72064 5.43333L10.054 3.3C10.1873 2.7 9.7873 2.03333 9.1873 1.83333C8.65397 1.63333 7.9873 1.9 7.72064 2.3L4.9873 6.36667" stroke="#6078A9" stroke-miterlimit="10"/>
<path id="Vector_2" d="M1.58691 12.2333V5.7C1.58691 4.76667 1.98691 4.43333 2.92025 4.43333H3.58691C4.52025 4.43333 4.92025 4.76667 4.92025 5.7V12.2333C4.92025 13.1667 4.52025 13.5 3.58691 13.5H2.92025C1.98691 13.5 1.58691 13.1667 1.58691 12.2333Z" stroke="#6078A9" stroke-linecap="round" stroke-linejoin="round"/>
</g>
</g>
</svg>
