
<svg width="16" height="16" viewBox="0 0 16 16" fill="none" xmlns="http://www.w3.org/2000/svg">
<g id="vuesax/bold/like">
<g id="like">
<path id="Vector" d="M5.59277 12.3267V5.55333C5.59277 5.28667 5.67277 5.02667 5.81944 4.80667L7.63944 2.1C7.92611 1.66667 8.63944 1.36 9.24611 1.58667C9.89944 1.80667 10.3328 2.54 10.1928 3.19333L9.84611 5.37333C9.81944 5.57333 9.87277 5.75333 9.98611 5.89333C10.0994 6.02 10.2661 6.1 10.4461 6.1H13.1861C13.7128 6.1 14.1661 6.31333 14.4328 6.68667C14.6861 7.04667 14.7328 7.51333 14.5661 7.98667L12.9261 12.98C12.7194 13.8067 11.8194 14.48 10.9261 14.48H8.32611C7.87944 14.48 7.25277 14.3267 6.96611 14.04L6.11277 13.38C5.78611 13.1333 5.59277 12.74 5.59277 12.3267Z" fill="#02C087"/>
<path id="Vector_2" d="M3.47301 4.25333H2.78634C1.75301 4.25333 1.33301 4.65333 1.33301 5.64V12.3467C1.33301 13.3333 1.75301 13.7333 2.78634 13.7333H3.47301C4.50634 13.7333 4.92634 13.3333 4.92634 12.3467V5.64C4.92634 4.65333 4.50634 4.25333 3.47301 4.25333Z" fill="#02C087"/>
</g>
</g>
</svg>
