<svg width="218" height="44" viewBox="0 0 218 44" fill="none" xmlns="http://www.w3.org/2000/svg">
<g clip-path="url(#clip0_405_1625)">
<path d="M21.85 10.0825V16.6825C18.75 16.6825 15.85 17.1825 13.35 18.1825V18.0825L11.75 16.8825V16.7825V12.0825C11.75 12.0825 11.75 11.9825 11.85 11.9825C12.45 11.6825 13.05 11.4825 13.65 11.2825C13.75 11.2825 13.85 11.2825 13.85 11.3825V13.0825C13.85 13.1825 13.95 13.2825 14.05 13.1825C14.65 12.9825 15.35 12.7825 15.95 12.6825C16.05 12.6825 16.05 12.5825 16.05 12.5825V10.7825C16.05 10.6825 16.05 10.6825 16.15 10.6825C16.75 10.5825 17.45 10.3825 18.05 10.3825C18.15 10.3825 18.25 10.4825 18.25 10.4825V12.2825C18.25 12.3825 18.35 12.3825 18.45 12.3825C19.05 12.2825 19.75 12.2825 20.35 12.1825C20.45 12.1825 20.45 12.0825 20.45 12.0825V10.1825C20.45 10.0825 20.45 10.0825 20.55 10.0825C20.85 10.0825 21.15 10.0825 21.45 10.0825H21.85Z" fill="#0E86FF"/>
<path d="M23.95 12.1824C23.75 12.1824 23.65 12.1824 23.45 12.1824L25.5499 10.4824V12.3824C24.9499 12.1824 24.45 12.1824 23.95 12.1824Z" fill="#0E86FF"/>
<path d="M28.55 12.8825C28.35 12.8825 28.25 12.7825 28.05 12.7825L29.9501 11.5825V13.2825C29.4501 13.0825 28.95 12.9825 28.55 12.8825Z" fill="#0E86FF"/>
<path d="M30.3501 18.0826C30.3501 18.1826 30.3501 18.1826 30.3501 18.0826V19.8826C27.7501 18.9826 24.9501 18.3826 21.8501 18.3826V16.6826C24.9501 16.6826 27.7501 17.1826 30.3501 18.0826Z" fill="#0E86FF"/>
<path d="M39.3501 5.28262C28.3501 4.68262 21.8501 0.682617 21.8501 0.682617C21.8501 0.682617 15.2501 4.68262 4.35012 5.28262C4.35012 6.18262 3.95012 18.7826 13.3501 29.1826C15.5501 31.6826 18.3501 33.9826 21.8501 35.9826C39.9501 25.3826 39.4501 6.38262 39.3501 5.28262ZM21.8501 34.2826V29.7826H19.9501V24.5826C19.9501 23.5826 20.7501 22.7826 21.8501 22.7826C22.8501 22.7826 23.6501 23.5826 23.6501 24.5826V29.7826H24.6501V24.5826C24.6501 22.9826 23.3501 21.6826 21.7501 21.6826V18.3826C18.6501 18.3826 15.7501 18.8826 13.2501 19.8826V26.8826C6.75012 18.8826 5.75012 9.88262 5.65012 6.58262C14.0501 5.88262 19.7501 3.38262 21.7501 2.38262C23.7501 3.38262 29.3501 5.98262 37.8501 6.58262C37.7501 11.0826 36.1501 25.4826 21.8501 34.2826Z" fill="#0E86FF"/>
<path d="M21.85 10.0825V16.6825C18.75 16.6825 15.85 17.1825 13.35 18.1825V18.0825L11.75 16.8825V16.7825V12.0825C11.75 12.0825 11.75 11.9825 11.85 11.9825C12.45 11.6825 13.05 11.4825 13.65 11.2825C13.75 11.2825 13.85 11.2825 13.85 11.3825V13.0825C13.85 13.1825 13.95 13.2825 14.05 13.1825C14.65 12.9825 15.35 12.7825 15.95 12.6825C16.05 12.6825 16.05 12.5825 16.05 12.5825V10.7825C16.05 10.6825 16.05 10.6825 16.15 10.6825C16.75 10.5825 17.45 10.3825 18.05 10.3825C18.15 10.3825 18.25 10.4825 18.25 10.4825V12.2825C18.25 12.3825 18.35 12.3825 18.45 12.3825C19.05 12.2825 19.75 12.2825 20.35 12.1825C20.45 12.1825 20.45 12.0825 20.45 12.0825V10.1825C20.45 10.0825 20.45 10.0825 20.55 10.0825C20.85 10.0825 21.15 10.0825 21.45 10.0825H21.85Z" fill="#0E86FF"/>
<path d="M30.3501 18.0826C30.3501 18.1826 30.3501 18.1826 30.3501 18.0826V19.8826C27.7501 18.9826 24.9501 18.3826 21.8501 18.3826V16.6826C24.9501 16.6826 27.7501 17.1826 30.3501 18.0826Z" fill="#0E86FF"/>
<path d="M25.5499 10.3828V12.2828C25.0499 12.1828 24.45 12.1828 23.95 12.0828C23.75 12.0828 23.65 12.0828 23.45 12.0828L25.5499 10.3828Z" fill="#0E86FF"/>
<path d="M29.9501 11.5825V13.2825C29.4501 13.1825 29.05 12.9825 28.55 12.8825C28.35 12.8825 28.25 12.7825 28.05 12.7825L29.9501 11.5825Z" fill="#0E86FF"/>
<path d="M42.95 5.28271C42.95 34.0827 21.85 43.4827 21.85 43.4827C21.85 43.4827 0.75 34.0827 0.75 5.28271C1.25 5.28271 1.65 5.28271 2.05 5.28271C2.05 6.38271 1.95 11.5827 4.15 17.7827C7.05 26.2827 12.75 33.2827 20.75 37.8827L21.85 38.5827L22.95 37.8827C30.85 33.2827 36.65 26.2827 39.55 17.7827C41.65 11.5827 41.65 6.38271 41.65 5.28271C42.05 5.28271 42.45 5.28271 42.95 5.28271Z" fill="#FFBA15"/>
<path d="M73.5501 4.38281L69.45 20.0828H64.75L62.25 9.78281L59.6501 20.0828H55.05L51.05 4.38281H55.1501L57.4501 15.7828L60.25 4.38281H64.4501L67.1501 15.7828L69.45 4.38281H73.5501Z" fill="#011132"/>
<path d="M85.25 17.2828H79.35L78.45 20.0828H74.45L80.15 4.38281H84.55L90.25 20.0828H86.25L85.25 17.2828ZM84.25 14.3828L82.35 8.68281L80.45 14.3828H84.25Z" fill="#011132"/>
<path d="M103.25 4.38281V7.48281H99.05V20.0828H95.25V7.48281H91.05V4.38281H103.25Z" fill="#011132"/>
<path d="M105.45 8.08272C106.15 6.88271 107.05 5.88271 108.25 5.28271C109.45 4.58271 110.85 4.28271 112.35 4.28271C114.25 4.28271 115.85 4.78271 117.15 5.78271C118.45 6.78271 119.35 8.08272 119.85 9.78272H115.65C115.35 9.08272 114.85 8.58272 114.35 8.28271C113.75 7.98271 113.15 7.78271 112.35 7.78271C111.15 7.78271 110.25 8.18272 109.45 8.98272C108.75 9.78272 108.35 10.8827 108.35 12.2827C108.35 13.6827 108.75 14.7827 109.45 15.5827C110.15 16.3827 111.15 16.7827 112.35 16.7827C113.05 16.7827 113.75 16.5827 114.35 16.2827C114.95 15.9827 115.35 15.4827 115.65 14.7827H119.85C119.45 16.4827 118.55 17.7827 117.15 18.7827C115.85 19.7827 114.25 20.2827 112.35 20.2827C110.85 20.2827 109.45 19.9827 108.25 19.2827C107.05 18.5827 106.15 17.6827 105.45 16.4827C104.75 15.2827 104.45 13.8827 104.45 12.3827C104.45 10.6827 104.85 9.28271 105.45 8.08272Z" fill="#011132"/>
<path d="M135.75 4.38281V20.0828H131.95V13.5828H126.05V20.0828H122.25V4.38281H126.05V10.4828H131.95V4.38281H135.75Z" fill="#011132"/>
<path d="M149.75 4.38281V7.48281H145.55V20.0828H141.75V7.48281H137.55V4.38281H149.75Z" fill="#011132"/>
<path d="M155.05 19.1826C153.85 18.4826 152.85 17.5826 152.15 16.2826C151.45 15.0826 151.05 13.6826 151.05 12.1826C151.05 10.6826 151.45 9.28262 152.15 8.08262C152.85 6.88262 153.85 5.88262 155.05 5.18262C156.25 4.48262 157.65 4.18262 159.15 4.18262C160.65 4.18262 161.95 4.48262 163.25 5.18262C164.55 5.88262 165.45 6.78262 166.15 8.08262C166.85 9.38262 167.25 10.6826 167.25 12.1826C167.25 13.6826 166.85 15.0826 166.15 16.2826C165.45 17.4826 164.45 18.4826 163.25 19.1826C162.05 19.8826 160.65 20.1826 159.25 20.1826C157.85 20.1826 156.35 19.8826 155.05 19.1826ZM162.15 15.4826C162.95 14.6826 163.25 13.5826 163.25 12.1826C163.25 10.7826 162.85 9.68262 162.15 8.88262C161.45 8.08262 160.35 7.68262 159.15 7.68262C157.85 7.68262 156.85 8.08262 156.15 8.88262C155.35 9.68262 155.05 10.7826 155.05 12.1826C155.05 13.5826 155.45 14.6826 156.15 15.4826C156.95 16.2826 157.95 16.6826 159.15 16.6826C160.35 16.7826 161.35 16.2826 162.15 15.4826Z" fill="#011132"/>
<path d="M190.85 4.38281L186.75 20.0828H182.15L179.65 9.78281L177.05 20.0828H172.45L168.45 4.38281H172.55L174.85 15.7828L177.65 4.38281H181.85L184.55 15.7828L186.75 4.38281H190.85Z" fill="#011132"/>
<path d="M196.65 7.48281V10.6828H201.75V13.6828H196.65V17.0828H202.45V20.1828H192.85V4.38281H202.45V7.48281H196.65Z" fill="#011132"/>
<path d="M212.95 20.0828L209.65 14.1828H208.75V20.0828H204.95V4.38281H211.35C212.55 4.38281 213.65 4.58281 214.55 4.98281C215.45 5.38281 216.05 5.98281 216.55 6.78281C216.95 7.58281 217.15 8.38281 217.15 9.28281C217.15 10.2828 216.85 11.2828 216.25 12.0828C215.65 12.8828 214.75 13.4828 213.65 13.7828L217.25 19.9828H212.95V20.0828ZM208.75 11.4828H211.15C211.85 11.4828 212.35 11.2828 212.75 10.9828C213.05 10.6828 213.25 10.1828 213.25 9.48281C213.25 8.88281 213.05 8.38281 212.75 8.08281C212.35 7.78281 211.85 7.58281 211.15 7.58281H208.75V11.4828Z" fill="#011132"/>
<path d="M51.1501 34.7824C51.1501 31.5824 53.5501 29.4824 56.5501 29.4824C58.5501 29.4824 59.8501 30.4824 60.6501 31.5824L59.1501 32.3824C58.5501 31.5824 57.6501 30.9824 56.4501 30.9824C54.4501 30.9824 52.9501 32.4824 52.9501 34.6824C52.9501 36.7824 54.4501 38.3824 56.4501 38.3824C57.4501 38.3824 58.4501 37.8824 58.8501 37.4824V35.8824H55.7501V34.2824H60.6501V38.0824C59.6501 39.1824 58.1501 39.9824 56.4501 39.9824C53.5501 40.1824 51.1501 37.9824 51.1501 34.7824Z" fill="#011132"/>
<path d="M71.6502 39.9826L69.3502 36.1826H67.5502V39.9826H65.7502V29.6826H70.2502C72.2502 29.6826 73.6502 30.9826 73.6502 32.8826C73.6502 34.6826 72.4502 35.6826 71.1502 35.8826L73.6502 39.8826H71.6502V39.9826ZM71.8502 32.8826C71.8502 31.8826 71.1502 31.2826 70.0502 31.2826H67.5502V34.5826H70.0502C71.0502 34.4826 71.8502 33.8826 71.8502 32.8826Z" fill="#011132"/>
<path d="M78.1501 34.7824C78.1501 31.6824 80.3501 29.4824 83.4501 29.4824C86.5501 29.4824 88.7501 31.7824 88.7501 34.7824C88.7501 37.7824 86.5501 40.0824 83.4501 40.0824C80.2501 40.0824 78.1501 37.8824 78.1501 34.7824ZM86.7501 34.7824C86.7501 32.6824 85.4501 31.0824 83.3501 31.0824C81.2501 31.0824 79.9501 32.6824 79.9501 34.7824C79.9501 36.8824 81.2501 38.4824 83.3501 38.4824C85.4501 38.4824 86.7501 36.8824 86.7501 34.7824Z" fill="#011132"/>
<path d="M93.4502 35.8826V29.6826H95.2502V35.8826C95.2502 37.4826 96.1502 38.5826 97.8502 38.5826C99.5502 38.5826 100.45 37.4826 100.45 35.8826V29.6826H102.25V35.8826C102.25 38.3826 100.75 40.1826 97.7502 40.1826C94.9502 40.0826 93.4502 38.3826 93.4502 35.8826Z" fill="#011132"/>
<path d="M107.65 39.9826V29.6826H112.15C114.35 29.6826 115.45 31.1826 115.45 32.8826C115.45 34.5826 114.25 36.0826 112.15 36.0826H109.45V39.9826H107.65ZM113.65 32.8826C113.65 31.8826 112.95 31.2826 111.95 31.2826H109.45V34.5826H111.95C112.95 34.4826 113.65 33.8826 113.65 32.8826Z" fill="#011132"/>
</g>
<defs>
<clipPath id="clip0_405_1625">
<rect width="216.5" height="42.8" fill="white" transform="translate(0.75 0.682617)"/>
</clipPath>
</defs>
</svg>
