<svg xmlns="http://www.w3.org/2000/svg" width="169" height="12" viewBox="0 0 169 12" fill="none">
  <path fill-rule="evenodd" clip-rule="evenodd" d="M68.6606 8.75272C69.1564 9.56234 69.8182 10.2101 70.6458 10.642C71.5277 11.1277 72.4102 11.3436 73.4025 11.3436C74.3954 11.3436 75.3328 11.0738 76.1598 10.642C76.9875 10.2101 77.6492 9.56234 78.145 8.75272C78.6415 7.94304 78.8623 7.02542 78.8623 5.99979C78.8623 4.97424 78.6415 4.05662 78.145 3.24693C77.6492 2.43725 76.9875 1.7895 76.1598 1.35769C75.3328 0.87188 74.3954 0.656006 73.4025 0.656006C72.4102 0.656006 71.4728 0.92588 70.6458 1.35769C69.8182 1.7895 69.1564 2.43725 68.6606 3.24693C68.1641 4.05662 67.9434 4.97424 67.9434 5.99979C67.9434 7.02542 68.1641 7.94304 68.6606 8.75272ZM76.2153 5.99979C76.2153 6.91748 75.9397 7.67316 75.4432 8.21291C74.9467 8.75272 74.285 9.0226 73.4025 9.0226C72.5755 9.0226 71.8589 8.75272 71.3624 8.21291C70.866 7.67316 70.5903 6.91748 70.5903 5.99979C70.5903 5.08217 70.866 4.32649 71.3624 3.78674C71.8589 3.24693 72.5206 2.97706 73.4025 2.97706C74.2301 2.97706 74.9467 3.24693 75.4432 3.78674C75.9397 4.32649 76.2153 5.08217 76.2153 5.99979Z" fill="#B6BFD2"/>
  <path d="M37.173 3.30091C37.6139 2.49122 38.2756 1.89747 39.0478 1.41166C39.8748 0.979853 40.7573 0.763916 41.8045 0.763916C43.073 0.763916 44.1208 1.08779 45.0582 1.73554C45.9956 2.38328 46.547 3.24697 46.8782 4.38046H44.0104C43.7896 3.94865 43.514 3.62478 43.1279 3.40884C42.7425 3.19297 42.3009 3.08503 41.8045 3.08503C41.033 3.08503 40.3712 3.35491 39.8748 3.89465C39.3783 4.43446 39.1575 5.13615 39.1575 6.05377C39.1575 6.97145 39.3783 7.67314 39.8748 8.21295C40.3712 8.7527 41.033 9.02257 41.8045 9.02257C42.3009 9.02257 42.7425 8.91463 43.1279 8.69876C43.514 8.48282 43.7896 8.15895 44.0104 7.72714H46.8782C46.6025 8.86063 45.9956 9.72432 45.0582 10.3721C44.1757 11.0198 43.073 11.3437 41.8045 11.3437C40.7573 11.3437 39.8748 11.1277 39.0478 10.6959C38.2201 10.2641 37.6139 9.61638 37.173 8.80669C36.7314 7.99701 36.5112 7.07939 36.5112 6.05377C36.5112 5.02821 36.6765 4.11059 37.173 3.30091Z" fill="#B6BFD2"/>
  <path d="M15.5564 0.87207L12.7997 11.2358H9.65633L7.94681 4.38068L6.1824 11.2358H3.09389L0.39209 0.87207H3.14941L4.69303 8.42904L6.56847 0.87207H9.43555L11.2555 8.42904L12.7997 0.87207H15.5564Z" fill="#B6BFD2"/>
  <path fill-rule="evenodd" clip-rule="evenodd" d="M19.4719 9.4006L18.8102 11.2358H16.1084L19.9684 0.87207H23.0014L26.8614 11.2358H24.1041L23.4423 9.4006H19.4719ZM22.7806 7.45742L21.4571 3.67893L20.1337 7.45742H22.7806Z" fill="#B6BFD2"/>
  <path d="M35.6281 2.92325V0.87207H27.4116V2.92325H30.2238V11.2898H32.8159V2.92325H35.6281Z" fill="#B6BFD2"/>
  <path d="M57.6321 11.2358V0.87207H55.04V4.92043H51.0147V0.87207H48.4233V11.2358H51.0147V6.97161H55.04V11.2358H57.6321Z" fill="#B6BFD2"/>
  <path d="M67.1152 0.87207V2.92325H64.303V11.2898H61.7116V2.92325H58.8994V0.87207H67.1152Z" fill="#B6BFD2"/>
  <path d="M94.8525 0.87207L92.0958 11.2358H88.9524L87.2429 4.38068L85.4785 11.2358H82.3351L79.6333 0.87207H82.39L83.9342 8.42904L85.809 0.87207H88.6768L90.4967 8.42904L92.0403 0.87207H94.8525Z" fill="#B6BFD2"/>
  <path d="M98.7677 4.97443V2.92325H102.683V0.87207H96.1763V11.2358H102.683V9.18472H98.7677V6.91761H102.242V4.97443H98.7677Z" fill="#B6BFD2"/>
  <path fill-rule="evenodd" clip-rule="evenodd" d="M109.742 11.2358L107.537 7.29548H106.93V11.2358H104.339V0.87207H108.695C109.522 0.87207 110.239 1.03401 110.846 1.30388C111.452 1.57376 111.893 2.00563 112.169 2.49144C112.445 2.97725 112.61 3.571 112.61 4.16475C112.61 4.86643 112.389 5.46024 112.003 5.99999C111.617 6.5398 111.011 6.91761 110.239 7.13354L112.665 11.2358H109.742ZM106.93 5.51417H108.529C109.026 5.51417 109.356 5.40624 109.577 5.1903C109.798 4.97443 109.908 4.65055 109.908 4.21874C109.908 3.84087 109.798 3.517 109.577 3.30106C109.356 3.08519 108.97 2.97719 108.529 2.97719H106.93V5.51417Z" fill="#B6BFD2"/>
  <path d="M123.858 3.03099C124.299 3.24686 124.63 3.57073 124.851 4.00254V4.05654H127.332C127.001 3.03099 126.395 2.2753 125.513 1.68149C124.63 1.08775 123.637 0.817871 122.424 0.817871C121.376 0.817871 120.494 1.03374 119.667 1.46562C118.84 1.95143 118.178 2.54518 117.737 3.35486C117.241 4.16448 117.021 5.1361 117.021 6.10772C117.021 7.07934 117.296 7.99697 117.737 8.80665C118.178 9.61627 118.84 10.264 119.667 10.6958C120.494 11.1277 121.432 11.3436 122.424 11.3436C123.362 11.3436 124.189 11.1816 124.906 10.8038C125.622 10.426 126.229 9.94015 126.67 9.3464C127.112 8.75265 127.387 8.05097 127.553 7.34922V5.56791H121.818V7.13328H125.457C125.292 7.83503 124.961 8.42878 124.465 8.86059C123.968 9.2924 123.307 9.50833 122.48 9.50833C121.818 9.50833 121.267 9.3464 120.77 9.07652C120.274 8.80665 119.888 8.37477 119.612 7.88903C119.336 7.40322 119.171 6.80941 119.171 6.10772C119.171 5.40598 119.281 4.86623 119.557 4.32642C119.833 3.78667 120.219 3.4088 120.715 3.13892C121.211 2.86905 121.762 2.70711 122.369 2.70711C122.921 2.70711 123.417 2.81505 123.858 3.03099Z" fill="#B6BFD2"/>
  <path fill-rule="evenodd" clip-rule="evenodd" d="M134.556 11.2356L132.24 7.18725H131.247V11.2356H129.152V0.925781H133.122C133.949 0.925781 134.611 1.08772 135.218 1.35759C135.825 1.62753 136.21 2.00534 136.486 2.49115C136.762 2.97696 136.927 3.51677 136.927 4.11052C136.927 4.8122 136.707 5.40595 136.321 5.94576C135.934 6.48551 135.328 6.86338 134.501 7.07932L137.038 11.2896H134.556V11.2356ZM131.247 5.67589H133.012C133.564 5.67589 134.005 5.51395 134.28 5.24401C134.556 4.97414 134.721 4.59633 134.721 4.11052C134.721 3.62471 134.556 3.24683 134.28 3.03096C134.005 2.76102 133.564 2.65309 133.012 2.65309H131.247V5.67589Z" fill="#B6BFD2"/>
  <path fill-rule="evenodd" clip-rule="evenodd" d="M138.968 8.75268C139.464 9.56236 140.126 10.2101 140.953 10.6419C141.78 11.1277 142.718 11.3437 143.655 11.3437C144.648 11.3437 145.53 11.0737 146.357 10.6419C147.129 10.2101 147.791 9.56236 148.287 8.75268C148.783 7.94299 149.004 7.02537 149.004 5.99981C149.004 5.02819 148.783 4.11057 148.287 3.30089C147.846 2.4912 147.184 1.84352 146.357 1.41165C145.585 0.925898 144.648 0.709961 143.655 0.709961C142.662 0.709961 141.78 0.979836 140.953 1.41165C140.126 1.84352 139.464 2.4912 138.968 3.30089C138.472 4.11057 138.251 4.97426 138.251 5.99981C138.251 7.02537 138.472 7.94299 138.968 8.75268ZM146.522 7.88906C146.247 8.37487 145.861 8.80668 145.365 9.07655C144.868 9.34642 144.317 9.50836 143.71 9.50836C143.048 9.50836 142.497 9.34642 142.001 9.07655C141.505 8.80668 141.119 8.4288 140.843 7.88906C140.567 7.34925 140.457 6.7555 140.457 6.05381C140.457 5.35207 140.567 4.75832 140.843 4.21851C141.119 3.67876 141.505 3.30089 142.001 3.03101C142.497 2.76114 143.048 2.5992 143.71 2.5992C144.317 2.5992 144.868 2.76114 145.365 3.03101C145.861 3.30089 146.247 3.67876 146.522 4.21851C146.798 4.75832 146.908 5.35207 146.908 6.05381C146.908 6.7555 146.798 7.40325 146.522 7.88906Z" fill="#B6BFD2"/>
  <path d="M152.754 0.925781V7.29519C152.754 7.99694 152.919 8.53669 153.305 8.91456C153.692 9.29237 154.188 9.45431 154.85 9.45431C155.511 9.45431 156.063 9.29237 156.449 8.91456C156.834 8.53669 157 7.99694 157 7.29519V0.925781H159.151V7.29519C159.151 8.15888 158.93 8.91456 158.544 9.50831C158.158 10.1021 157.662 10.5879 157 10.8577C156.338 11.1816 155.621 11.2896 154.85 11.2896C154.078 11.2896 153.36 11.1277 152.699 10.8577C152.037 10.5339 151.541 10.1021 151.155 9.50831C150.769 8.91456 150.603 8.15888 150.603 7.29519V0.925781H152.754Z" fill="#B6BFD2"/>
  <path fill-rule="evenodd" clip-rule="evenodd" d="M167.202 6.86338C167.808 6.53951 168.194 6.1617 168.47 5.67589C168.746 5.19008 168.856 4.65027 168.856 4.11052C168.856 3.51677 168.691 2.97696 168.415 2.49115C168.139 2.00534 167.698 1.62753 167.147 1.35759C166.54 1.08772 165.879 0.925781 165.051 0.925781H161.191V11.2356H163.287V7.29519H165.051C165.933 7.29519 166.65 7.13326 167.202 6.86338ZM166.706 4.11052C166.706 4.54233 166.54 4.9202 166.265 5.19008C165.988 5.45995 165.547 5.62189 164.996 5.62189H163.341V2.59909H164.996C166.154 2.59909 166.706 3.0849 166.706 4.11052Z" fill="#B6BFD2"/>
</svg>