<svg width="264" height="54" viewBox="0 0 264 54" fill="none" xmlns="http://www.w3.org/2000/svg">
<g clip-path="url(#clip0_405_1430)">
<path d="M25.5325 14.332V24.2418C21.0799 24.2418 16.8361 25.0317 13.1489 26.4679C13.1489 26.3961 13.0793 26.3961 13.0793 26.3243L10.853 24.529C10.7834 24.529 10.7834 24.4572 10.7834 24.3854V17.4199C10.7834 17.348 10.853 17.2762 10.9226 17.2762C11.7574 16.9172 12.5923 16.5581 13.4967 16.2709C13.6358 16.1991 13.775 16.3427 13.775 16.4145V18.9279C13.775 19.0715 13.9141 19.1433 14.0533 19.1433C14.9577 18.8561 15.8621 18.5688 16.8361 18.3534C16.9057 18.3534 16.9752 18.2816 16.9752 18.138V15.3374C16.9752 15.2656 17.0448 15.1938 17.1144 15.1219C18.0188 14.9065 18.9928 14.7629 19.8972 14.6193C20.0364 14.6193 20.1059 14.6911 20.1059 14.8347V17.4917C20.1059 17.5635 20.1755 17.7071 20.3146 17.7071C21.2191 17.5635 22.1235 17.4917 23.0975 17.4917C23.167 17.4917 23.3062 17.4199 23.3062 17.2762V14.5475C23.3062 14.4757 23.3758 14.4038 23.4453 14.4038H23.5149C23.9323 14.4038 24.3497 14.4038 24.8367 14.4038H25.5325V14.332Z" fill="#2566AF"/>
<path d="M28.5241 17.4919C28.3154 17.4919 28.1067 17.4919 27.8284 17.4201L30.8895 14.835V17.7074C30.1242 17.6355 29.3589 17.5637 28.5241 17.4919Z" fill="#2566AF"/>
<path d="M35.2724 18.5693C35.0637 18.4975 34.7854 18.4257 34.5767 18.3538L37.3595 16.5586V19.1437C36.6638 19.0001 35.9681 18.7847 35.2724 18.5693Z" fill="#2566AF"/>
<path d="M37.9161 26.4683V29.1971C34.2288 27.7609 29.985 26.971 25.5325 26.971V24.2422C29.985 24.2422 34.2288 25.0321 37.9161 26.4683Z" fill="#2566AF"/>
<path d="M51.0649 7.07877C35.0636 6.28887 25.5324 0.256836 25.5324 0.256836C25.5324 0.256836 15.9316 6.28887 -7.88923e-05 7.07877C-0.0696497 8.51497 -0.626216 27.4728 13.1488 43.0555C16.4186 46.7896 20.4537 50.2365 25.5324 53.3243C51.9693 37.4544 51.1344 8.87402 51.0649 7.07877ZM25.5324 50.7392V44.0609H22.8191V36.1618C22.8191 34.6538 24.0018 33.3612 25.5324 33.3612C26.9934 33.3612 28.2457 34.582 28.2457 36.1618V44.0609H29.7066V36.1618C29.7066 33.792 27.8282 31.8532 25.5324 31.8532V26.9701C21.0799 26.9701 16.8361 27.76 13.1488 29.1962V39.7523C3.6176 27.6882 2.29576 14.188 2.15662 9.16126C14.4011 8.15592 22.68 4.27819 25.5324 2.77018C28.3848 4.27819 36.6637 8.15592 48.9082 9.16126C48.6995 15.8396 46.4036 37.5262 25.5324 50.7392Z" fill="#2566AF"/>
<path d="M25.5325 14.332V24.2418C21.0799 24.2418 16.8361 25.0317 13.1489 26.4679C13.1489 26.3961 13.0793 26.3961 13.0793 26.3243L10.853 24.529C10.7834 24.529 10.7834 24.4572 10.7834 24.3854V17.4199C10.7834 17.348 10.853 17.2762 10.9226 17.2762C11.7574 16.9172 12.5923 16.5581 13.4967 16.2709C13.6358 16.1991 13.775 16.3427 13.775 16.4145V18.9279C13.775 19.0715 13.9141 19.1433 14.0533 19.1433C14.9577 18.8561 15.8621 18.5688 16.8361 18.3534C16.9057 18.3534 16.9752 18.2816 16.9752 18.138V15.3374C16.9752 15.2656 17.0448 15.1938 17.1144 15.1219C18.0188 14.9065 18.9928 14.7629 19.8972 14.6193C20.0364 14.6193 20.1059 14.6911 20.1059 14.8347V17.4917C20.1059 17.5635 20.1755 17.7071 20.3146 17.7071C21.2191 17.5635 22.1235 17.4917 23.0975 17.4917C23.167 17.4917 23.3062 17.4199 23.3062 17.2762V14.5475C23.3062 14.4757 23.3758 14.4038 23.4453 14.4038H23.5149C23.9323 14.4038 24.3497 14.4038 24.8367 14.4038H25.5325V14.332Z" fill="#2566AF"/>
<path d="M37.9161 26.4683V29.1971C34.2288 27.7609 29.985 26.971 25.5325 26.971V24.2422C29.985 24.2422 34.2288 25.0321 37.9161 26.4683Z" fill="#2566AF"/>
<path d="M30.8895 14.834V17.7064C30.1242 17.5628 29.3589 17.491 28.5241 17.4191C28.3154 17.4191 28.1067 17.4191 27.8284 17.3473L30.8895 14.834Z" fill="#2566AF"/>
<path d="M37.2899 16.6299V19.215C36.5942 18.9996 35.9681 18.7842 35.2028 18.6406C34.9941 18.5688 34.7158 18.4969 34.5071 18.4251L37.2899 16.6299Z" fill="#2566AF"/>
</g>
<path d="M88.5491 7.69141L83.5432 26.7905H77.8047L74.7523 14.2605L71.5778 26.7905H65.9614L61.0776 7.69141H66.0835L68.8917 21.5595L72.3104 7.69141H77.4384L80.735 21.5595L83.5432 7.69141H88.5491Z" fill="white"/>
<path d="M102.834 23.3843H95.6306L94.5318 26.7905H89.6479L96.6074 7.69141H101.98L108.939 26.7905H104.055L102.834 23.3843ZM101.613 19.8564L99.2935 12.9224L96.9737 19.8564H101.613Z" fill="white"/>
<path d="M124.811 7.69141V11.4626H119.683V26.7905H115.044V11.4626H109.916V7.69141H124.811Z" fill="white"/>
<path d="M127.498 12.193C128.352 10.7332 129.451 9.51671 130.916 8.78681C132.381 7.93526 134.091 7.57031 135.922 7.57031C138.242 7.57031 140.195 8.17856 141.783 9.39506C143.37 10.6116 144.469 12.193 145.079 14.2611H139.951C139.585 13.4095 138.975 12.8013 138.364 12.4363C137.631 12.0714 136.899 11.8281 135.922 11.8281C134.457 11.8281 133.358 12.3147 132.381 13.2879C131.527 14.2611 131.038 15.5992 131.038 17.3023C131.038 19.0054 131.527 20.3436 132.381 21.3168C133.236 22.29 134.457 22.7766 135.922 22.7766C136.777 22.7766 137.631 22.5333 138.364 22.1683C139.097 21.8034 139.585 21.1951 139.951 20.3436H145.079C144.591 22.4116 143.492 23.9931 141.783 25.2096C140.195 26.4261 138.242 27.0343 135.922 27.0343C134.091 27.0343 132.381 26.6694 130.916 25.8178C129.451 24.9663 128.352 23.8714 127.498 22.4116C126.643 20.9518 126.277 19.2487 126.277 17.424C126.277 15.3559 126.765 13.6528 127.498 12.193Z" fill="white"/>
<path d="M164.492 7.69141V26.7905H159.853V18.8832H152.649V26.7905H148.01V7.69141H152.649V15.1121H159.853V7.69141H164.492Z" fill="white"/>
<path d="M181.586 7.69141V11.4626H176.458V26.7905H171.818V11.4626H166.69V7.69141H181.586Z" fill="white"/>
<path d="M188.057 25.6958C186.592 24.8442 185.371 23.7494 184.516 22.1679C183.661 20.7081 183.173 19.005 183.173 17.1802C183.173 15.3555 183.661 13.6524 184.516 12.1926C185.371 10.7328 186.592 9.51629 188.057 8.66474C189.522 7.81319 191.231 7.44824 193.063 7.44824C194.894 7.44824 196.481 7.81319 198.068 8.66474C199.656 9.51629 200.755 10.6111 201.609 12.1926C202.464 13.774 202.952 15.3555 202.952 17.1802C202.952 19.005 202.464 20.7081 201.609 22.1679C200.755 23.6277 199.534 24.8442 198.068 25.6958C196.603 26.5473 194.894 26.9123 193.185 26.9123C191.475 26.9123 189.644 26.5473 188.057 25.6958ZM196.725 21.1947C197.702 20.2215 198.068 18.8833 198.068 17.1802C198.068 15.4771 197.58 14.139 196.725 13.1658C195.871 12.1926 194.528 11.706 193.063 11.706C191.475 11.706 190.254 12.1926 189.4 13.1658C188.423 14.139 188.057 15.4771 188.057 17.1802C188.057 18.8833 188.545 20.2215 189.4 21.1947C190.376 22.1679 191.597 22.6545 193.063 22.6545C194.528 22.7762 195.749 22.1679 196.725 21.1947Z" fill="white"/>
<path d="M231.767 7.69141L226.761 26.7905H221.145L218.092 14.2605L214.918 26.7905H209.301L204.417 7.69141H209.423L212.232 21.5595L215.65 7.69141H220.778L224.075 21.5595L226.761 7.69141H231.767Z" fill="white"/>
<path d="M238.848 11.4626V15.3554H245.075V19.0049H238.848V23.141H245.93V26.9121H234.208V7.69141H245.93V11.4626H238.848Z" fill="white"/>
<path d="M258.75 26.7905L254.721 19.6131H253.622V26.7905H248.982V7.69141H256.797C258.262 7.69141 259.605 7.93471 260.704 8.42131C261.802 8.90791 262.535 9.63781 263.145 10.611C263.634 11.5842 263.878 12.5574 263.878 13.6523C263.878 14.8688 263.512 16.0853 262.779 17.0585C262.047 18.0317 260.948 18.7616 259.605 19.1265L264 26.6688H258.75V26.7905ZM253.622 16.3286H256.552C257.407 16.3286 258.017 16.0853 258.506 15.7203C258.872 15.3554 259.116 14.7471 259.116 13.8956C259.116 13.1657 258.872 12.5574 258.506 12.1925C258.017 11.8275 257.407 11.5842 256.552 11.5842H253.622V16.3286Z" fill="white"/>
<path d="M61.1997 39.5637C61.1997 35.6709 64.13 33.1162 67.7928 33.1162C70.2348 33.1162 71.822 34.3327 72.7988 35.6709L70.9673 36.6441C70.2348 35.6709 69.1359 34.941 67.6708 34.941C65.2288 34.941 63.3974 36.7657 63.3974 39.442C63.3974 41.9967 65.2288 43.9431 67.6708 43.9431C68.8917 43.9431 70.1127 43.3348 70.601 42.8482V40.9018H66.8161V38.9554H72.7988V43.5781C71.5778 44.9163 69.7464 45.8895 67.6708 45.8895C64.13 46.1328 61.1997 43.4565 61.1997 39.5637Z" fill="#959595"/>
<path d="M86.2293 45.8893L83.4211 41.2666H81.2234V45.8893H79.0256V33.3594H84.5199C86.9618 33.3594 88.6712 34.9408 88.6712 37.2522C88.6712 39.4419 87.206 40.6584 85.6188 40.9017L88.6712 45.7677H86.2293V45.8893ZM86.4734 37.2522C86.4734 36.0357 85.6188 35.3058 84.2757 35.3058H81.2234V39.3202H84.2757C85.4967 39.1986 86.4734 38.4687 86.4734 37.2522Z" fill="#959595"/>
<path d="M94.1655 39.5637C94.1655 35.7925 96.8516 33.1162 100.637 33.1162C104.422 33.1162 107.108 35.9142 107.108 39.5637C107.108 43.2132 104.422 46.0111 100.637 46.0111C96.7295 46.0111 94.1655 43.3348 94.1655 39.5637ZM104.666 39.5637C104.666 37.009 103.078 35.0626 100.514 35.0626C97.9505 35.0626 96.3632 37.009 96.3632 39.5637C96.3632 42.1183 97.9505 44.0647 100.514 44.0647C103.078 44.0647 104.666 42.1183 104.666 39.5637Z" fill="#959595"/>
<path d="M112.846 40.9017V33.3594H115.044V40.9017C115.044 42.8481 116.143 44.1862 118.218 44.1862C120.294 44.1862 121.393 42.8481 121.393 40.9017V33.3594H123.59V40.9017C123.59 43.9429 121.759 46.1326 118.096 46.1326C114.677 46.011 112.846 43.9429 112.846 40.9017Z" fill="#959595"/>
<path d="M130.184 45.8893V33.3594H135.678C138.364 33.3594 139.707 35.1841 139.707 37.2522C139.707 39.3202 138.242 41.145 135.678 41.145H132.381V45.8893H130.184ZM137.509 37.2522C137.509 36.0357 136.655 35.3058 135.434 35.3058H132.381V39.3202H135.434C136.655 39.1986 137.509 38.4687 137.509 37.2522Z" fill="#959595"/>
<defs>
<clipPath id="clip0_405_1430">
<rect width="51.065" height="53.0675" fill="white" transform="translate(0 0.256836)"/>
</clipPath>
</defs>
</svg>
