<svg width="362" height="76" viewBox="0 0 362 76" fill="none" xmlns="http://www.w3.org/2000/svg">
<g clip-path="url(#clip0_421_166)">
<path d="M33.9982 75.9109C-3.53691 62.4261 0.0955205 19.5765 0.0955205 19.5765C0.779892 64.0401 33.9982 73.4639 33.9982 73.4639C33.9982 73.4639 67.2166 63.988 67.901 19.5765C67.901 19.5765 71.586 62.4261 33.9982 75.9109Z" fill="white"/>
<path d="M67.0584 15.3071C41.842 19.2641 33.998 4.3214 33.998 4.3214C33.998 4.3214 26.2067 19.2641 0.990234 15.3071C0.990234 15.3071 26.6278 16.9211 34.0507 0C41.4208 16.9211 67.0584 15.3071 67.0584 15.3071Z" fill="white"/>
<path d="M62.794 19.5764C62.794 19.5764 61.8991 19.6285 60.4251 19.6285C54.8448 19.6285 40.7362 18.5872 33.9978 8.79895C27.2593 18.5872 13.1508 19.6285 7.5705 19.6285C6.09647 19.6285 5.20152 19.5764 5.20152 19.5764C5.20152 19.5764 2.35874 43.7346 19.2048 60.083C19.6786 60.6037 20.2051 61.0723 20.7841 61.5409C23.1531 63.6235 25.8906 65.5499 28.9966 67.268C29.9968 67.7887 31.0497 68.3093 32.1026 68.83C32.7343 69.0903 33.3134 69.4027 33.9451 69.663C34.5769 69.4027 35.2086 69.1424 35.7877 68.83C36.8932 68.3093 37.8934 67.7887 38.8937 67.268C42.4735 65.3416 45.4742 63.1028 48.0537 60.7078C48.5802 60.1872 49.1066 59.6665 49.633 59.1459C65.5315 42.7974 62.794 19.5764 62.794 19.5764ZM58.7404 39.0488C57.0558 45.0362 54.371 50.3469 50.7386 54.8245C50.4227 55.241 50.1068 55.6054 49.7383 56.022V35.9248L52.8443 34.6232V25.2515C52.8443 25.2515 52.8443 25.2515 52.7917 25.2515C52.3179 25.0432 51.7914 24.835 51.265 24.6267V32.8009C49.3698 32.1762 46.1585 31.3952 41.6312 31.0828C40.473 30.9787 39.2095 30.9266 37.8934 30.9266C37.6829 30.9266 37.5249 30.9266 37.3143 30.9266C37.4723 30.9266 37.6829 30.9787 37.8934 30.9787C38.2093 31.0307 38.5778 31.0307 38.8937 31.0828C44.5266 31.7596 48.4222 33.0613 50.528 33.8422L49.1592 34.415L48.2117 34.8315V57.688C44.3686 61.645 39.736 64.821 34.3136 67.216C34.2083 67.268 34.1557 67.268 34.0504 67.3201V57.0112H30.7865V45.8693C30.7865 43.9949 32.2079 42.433 34.0504 42.1727C34.2083 42.1727 34.3663 42.1206 34.5242 42.1206C36.63 42.1206 38.3146 43.7867 38.3146 45.8693V57.1153H40.4203V45.8693C40.4203 42.6412 37.7881 40.038 34.5242 40.038C34.3663 40.038 34.2083 40.038 34.0504 40.038V21.659C33.2608 21.659 32.4711 21.7111 31.6814 21.7111V26.0325C30.418 26.0846 29.1545 26.1887 27.8911 26.3449V22.0235C26.4697 22.1797 25.1536 22.44 23.8375 22.7003V27.0738C22.5214 27.3341 21.2579 27.6986 20.0471 28.063V23.7416C18.6784 24.1581 17.3623 24.6788 16.1515 25.1994V33.634C16.1515 33.634 20.0471 31.7076 27.8911 31.1349C29.0492 31.0307 30.3127 30.9787 31.6814 30.9787C31.8394 30.9787 32.0499 30.9787 32.2605 30.9787C32.0499 30.9787 31.892 31.0307 31.6814 31.0307C31.3656 31.0828 30.9971 31.0828 30.6812 31.1349C21.9949 32.2282 17.3623 34.6753 17.3623 34.6753L19.2575 35.9769V57.1674C18.5731 56.4385 17.9414 55.6575 17.3096 54.8765C13.7298 50.3989 11.045 45.0883 9.30775 39.1008C7.14935 31.6555 7.0967 24.9391 7.20199 21.7632C7.30728 21.7632 7.46521 21.7632 7.5705 21.7632C13.1508 21.7632 26.3118 20.7739 33.9978 12.2352C41.6838 20.7739 54.8448 21.7632 60.4251 21.7632C60.5303 21.7632 60.6883 21.7632 60.7936 21.7632C60.9515 24.8871 60.8462 31.6034 58.7404 39.0488Z" fill="white"/>
<path d="M38.9995 67.2681C37.9993 67.7887 36.9464 68.3094 35.8935 68.83H32.1558C31.0503 68.3094 30.05 67.7887 29.0498 67.2681H38.9995Z" fill="white"/>
<path opacity="0.69" d="M43.3688 26.6055C42.4212 26.4493 41.4209 26.3452 40.3681 26.241C40.1048 26.241 39.789 26.189 39.5258 26.189C38.6834 26.1369 37.7885 26.0848 36.8936 26.0328V21.6593C38.0517 21.7114 39.2099 21.7634 40.3681 21.8676V25.5121L43.3688 26.6055Z" fill="white"/>
<path opacity="0.69" d="M49.7384 28.0111C49.2119 27.8549 48.6329 27.6987 48.0538 27.5425C47.9485 27.5425 47.8432 27.4904 47.7379 27.4904C46.7903 27.2301 45.7374 27.0218 44.6846 26.8657V22.4922C45.8427 22.7004 46.9483 22.9087 48.0011 23.2211V27.0218C48.4223 27.178 49.2119 27.6987 49.7384 28.0111Z" fill="white"/>
<path d="M121.764 29.8363L117.444 46.2456H112.518L109.839 35.3916L107.074 46.2456H102.234L98 29.8363H102.321L104.74 41.8015L107.679 29.8363H112.172L115.024 41.8015L117.444 29.8363H121.764Z" fill="white"/>
<path d="M134.122 43.3398H127.9L126.863 46.2456H122.629L128.678 29.8363H133.431L139.48 46.2456H135.159L134.122 43.3398ZM133.085 40.2631L131.011 34.2805L128.937 40.2631H133.085Z" fill="white"/>
<path d="M153.219 29.8363V33.084H148.812V46.3311H144.75V33.084H140.343V29.8363H153.219Z" fill="white"/>
<path d="M155.64 33.6819C156.331 32.3999 157.368 31.4598 158.578 30.6906C159.874 30.0069 161.257 29.665 162.898 29.665C164.886 29.665 166.528 30.1778 167.997 31.2034C169.466 32.229 170.33 33.5965 170.849 35.3912H166.355C166.009 34.7075 165.577 34.1947 164.972 33.8528C164.368 33.511 163.676 33.3401 162.898 33.3401C161.689 33.3401 160.652 33.7674 159.874 34.622C159.096 35.4767 158.75 36.5877 158.75 38.0406C158.75 39.4936 159.096 40.6046 159.874 41.4593C160.652 42.3139 161.689 42.7412 162.898 42.7412C163.676 42.7412 164.368 42.5703 164.972 42.2285C165.577 41.8866 166.009 41.3738 166.355 40.6901H170.849C170.417 42.4848 169.466 43.8523 167.997 44.8779C166.614 45.9035 164.886 46.4163 162.898 46.4163C161.257 46.4163 159.874 46.0744 158.578 45.3907C157.281 44.7069 156.331 43.6814 155.64 42.3994C154.948 41.1174 154.603 39.6645 154.603 38.0406C154.603 36.4168 154.862 34.9639 155.64 33.6819Z" fill="white"/>
<path d="M187.701 29.8363V46.2456H183.639V39.4939H177.331V46.2456H173.27V29.8363H177.331V36.2462H183.639V29.8363H187.701Z" fill="white"/>
<path d="M202.562 29.8363V33.084H198.155V46.3311H194.094V33.084H189.687V29.8363H202.562Z" fill="white"/>
<path d="M208.095 45.3054C206.798 44.6216 205.761 43.596 204.984 42.3141C204.206 41.0321 203.86 39.5792 203.86 37.9553C203.86 36.3315 204.206 34.8786 204.984 33.5966C205.761 32.3146 206.798 31.289 208.095 30.6053C209.391 29.9216 210.86 29.4943 212.415 29.4943C213.971 29.4943 215.44 29.8361 216.736 30.6053C218.033 31.289 219.07 32.3146 219.847 33.5966C220.625 34.8786 220.971 36.3315 220.971 37.9553C220.971 39.5792 220.625 41.0321 219.847 42.3141C219.07 43.596 218.033 44.6216 216.736 45.3054C215.44 45.9891 213.971 46.4164 212.415 46.4164C210.86 46.4164 209.477 46.0745 208.095 45.3054ZM215.613 41.4594C216.391 40.6048 216.823 39.4083 216.823 37.9553C216.823 36.5024 216.391 35.3059 215.613 34.4513C214.835 33.5966 213.712 33.1693 212.415 33.1693C211.033 33.1693 209.996 33.5966 209.218 34.4513C208.44 35.3059 208.008 36.5024 208.008 37.9553C208.008 39.4083 208.44 40.6048 209.218 41.4594C209.996 42.3141 211.119 42.7414 212.415 42.7414C213.798 42.7414 214.835 42.3141 215.613 41.4594Z" fill="white"/>
<path d="M246.029 29.8363L241.709 46.2456H236.783L234.104 35.3916L231.339 46.2456H226.413L222.179 29.8363H226.499L228.919 41.8015L231.857 29.8363H236.351L239.203 41.8015L241.622 29.8363H246.029Z" fill="white"/>
<path d="M252.165 32.9985V36.3317H257.609V39.4084H252.165V42.998H258.301V46.2456H248.104V29.8363H258.301V33.084H252.165V32.9985Z" fill="white"/>
<path d="M269.363 46.2456L265.907 40.0067H264.956V46.2456H260.895V29.8363H267.721C269.018 29.8363 270.141 30.0927 271.092 30.52C272.042 30.9473 272.733 31.6311 273.166 32.4003C273.598 33.1695 273.857 34.1096 273.857 35.0497C273.857 36.1607 273.511 37.1009 272.906 37.9555C272.301 38.8102 271.351 39.4084 270.141 39.7503L273.943 46.2456H269.363ZM264.956 37.1863H267.462C268.24 37.1863 268.758 37.0154 269.104 36.6735C269.45 36.3317 269.623 35.8189 269.623 35.1352C269.623 34.5369 269.45 34.0241 269.104 33.6822C268.758 33.3404 268.153 33.1694 267.462 33.1694H264.956V37.1863Z" fill="white"/>
<path d="M293.04 34.7929C292.694 34.1092 292.175 33.5964 291.484 33.2546C290.793 32.9127 290.015 32.7418 289.151 32.7418C288.2 32.7418 287.336 32.9982 286.558 33.4255C285.781 33.8528 285.176 34.4511 284.744 35.3057C284.312 36.1604 284.139 37.015 284.139 38.1261C284.139 39.2371 284.398 40.1773 284.83 40.9465C285.262 41.7156 285.867 42.3994 286.645 42.8267C287.423 43.254 288.287 43.5104 289.324 43.5104C290.62 43.5104 291.657 43.1685 292.435 42.4848C293.212 41.8011 293.731 40.861 293.99 39.7499H288.287V37.2714H297.274V40.0918C297.015 41.2029 296.583 42.3139 295.891 43.254C295.2 44.1941 294.249 44.9633 293.126 45.5616C292.003 46.1598 290.706 46.4162 289.237 46.4162C287.682 46.4162 286.213 46.0744 284.917 45.3906C283.62 44.7069 282.583 43.6813 281.892 42.3994C281.201 41.1174 280.769 39.6645 280.769 38.1261C280.769 36.5877 281.114 35.0493 281.892 33.7674C282.583 32.4854 283.62 31.5453 284.917 30.7761C286.213 30.0923 287.595 29.7505 289.237 29.7505C291.138 29.7505 292.694 30.1778 294.077 31.1179C295.459 32.0581 296.41 33.2546 296.928 34.8784H293.04V34.7929Z" fill="white"/>
<path d="M308.249 46.2454L304.62 39.8355H303.064V46.2454H299.78V29.9215H306.002C307.298 29.9215 308.335 30.1779 309.286 30.6052C310.237 31.0326 310.841 31.6308 311.274 32.4C311.706 33.1692 311.965 34.0239 311.965 34.964C311.965 36.075 311.619 37.0151 311.014 37.8698C310.409 38.7244 309.459 39.3227 308.163 39.6646L312.138 46.3309H308.249V46.2454ZM303.064 37.4425H305.829C306.694 37.4425 307.385 37.1861 307.817 36.7587C308.249 36.3314 308.508 35.7332 308.508 34.964C308.508 34.1948 308.249 33.5965 307.817 33.2547C307.385 32.8273 306.694 32.6564 305.829 32.6564H303.064V37.4425Z" fill="white"/>
<path d="M318.273 45.3052C316.977 44.6215 315.94 43.5959 315.162 42.3139C314.385 41.0319 314.039 39.579 314.039 37.9552C314.039 36.3314 314.385 34.9639 315.162 33.6819C315.94 32.3999 316.977 31.3744 318.273 30.6906C319.57 30.0069 320.952 29.5796 322.508 29.5796C324.063 29.5796 325.532 29.9215 326.742 30.6906C328.038 31.3744 329.075 32.3999 329.767 33.6819C330.544 34.9639 330.89 36.4168 330.89 37.9552C330.89 39.579 330.544 41.0319 329.767 42.3139C328.989 43.5959 327.952 44.6215 326.742 45.3052C325.446 45.9889 324.063 46.4163 322.508 46.4163C321.039 46.4163 319.57 46.0744 318.273 45.3052ZM325.187 42.8267C325.964 42.3994 326.569 41.7157 327.001 40.9465C327.433 40.1773 327.606 39.1517 327.606 38.0407C327.606 36.9296 327.433 35.9895 327.001 35.1348C326.569 34.2802 325.964 33.6819 325.187 33.2546C324.409 32.8273 323.545 32.5709 322.594 32.5709C321.557 32.5709 320.693 32.8273 319.915 33.2546C319.138 33.6819 318.533 34.2802 318.101 35.1348C317.669 35.9895 317.496 36.9296 317.496 38.0407C317.496 39.1517 317.669 40.0918 318.101 40.9465C318.533 41.8011 319.138 42.3994 319.915 42.8267C320.693 43.254 321.557 43.5104 322.594 43.5104C323.545 43.5104 324.409 43.254 325.187 42.8267Z" fill="white"/>
<path d="M336.767 29.9215V40.0064C336.767 41.1175 337.026 41.9721 337.631 42.5704C338.236 43.1686 339.014 43.425 340.051 43.425C341.087 43.425 341.952 43.1686 342.557 42.5704C343.161 41.9721 343.421 41.1175 343.421 40.0064V29.9215H346.791V40.0064C346.791 41.3739 346.445 42.5704 345.84 43.5105C345.235 44.4506 344.458 45.2198 343.421 45.6471C342.384 46.1599 341.26 46.3309 340.051 46.3309C338.841 46.3309 337.717 46.0745 336.68 45.6471C335.643 45.1343 334.866 44.4506 334.261 43.5105C333.656 42.5704 333.396 41.3739 333.396 40.0064V29.9215H336.767Z" fill="white"/>
<path d="M361.395 37.4425C360.963 38.2117 360.358 38.8099 359.408 39.3227C358.543 39.75 357.42 40.0064 356.037 40.0064H353.272V46.2454H349.988V29.9215H356.037C357.334 29.9215 358.371 30.1779 359.321 30.6052C360.185 31.0326 360.877 31.6308 361.309 32.4C361.741 33.1692 362 34.0239 362 34.964C362 35.8186 361.827 36.6733 361.395 37.4425ZM357.939 36.6733C358.371 36.246 358.63 35.6477 358.63 34.964C358.63 33.3401 357.766 32.5709 355.951 32.5709H353.358V37.357H355.951C356.815 37.357 357.506 37.1006 357.939 36.6733Z" fill="white"/>
</g>
<defs>
<clipPath id="clip0_421_166">
<rect width="362" height="76" fill="white"/>
</clipPath>
</defs>
</svg>
