<svg width="533" height="79" viewBox="0 0 533 79" fill="none" xmlns="http://www.w3.org/2000/svg">
<path d="M120.725 27.5861L113.322 55.7073H104.88L100.289 37.1064L95.5504 55.7073H87.256L80 27.5861H87.405L91.5506 48.0913L96.5872 27.5861H104.287L109.175 48.0913L113.322 27.5861H120.725Z" fill="#00153C"/>
<path d="M141.904 50.7275H131.241L129.464 55.7073H122.208L132.574 27.5861H140.719L151.086 55.7073H143.681L141.904 50.7275ZM140.126 45.4549L136.572 35.2023L133.018 45.4549H140.126Z" fill="#00153C"/>
<path d="M174.631 27.5861V33.1518H167.078V55.8538H160.117V33.1518H152.565V27.5861H174.631Z" fill="#00153C"/>
<path d="M178.78 34.1764C179.964 31.9793 181.741 30.3683 183.815 29.0501C186.036 27.8784 188.406 27.2924 191.218 27.2924C194.625 27.2924 197.439 28.1713 199.956 29.9289C202.474 31.6865 203.954 34.03 204.844 37.1056H197.142C196.549 35.934 195.809 35.0552 194.772 34.4692C193.737 33.8835 192.551 33.5906 191.218 33.5906C189.146 33.5906 187.369 34.3229 186.036 35.7874C184.702 37.2522 184.109 39.1561 184.109 41.646C184.109 44.1361 184.702 46.04 186.036 47.5048C187.369 48.9693 189.146 49.7016 191.218 49.7016C192.551 49.7016 193.737 49.4087 194.772 48.823C195.809 48.237 196.549 47.3582 197.142 46.1866H204.844C204.104 49.2622 202.474 51.6057 199.956 53.3633C197.586 55.1209 194.625 55.9997 191.218 55.9997C188.406 55.9997 186.036 55.4138 183.815 54.2421C181.592 53.0703 179.964 51.3128 178.78 49.1158C177.594 46.9188 177.003 44.4289 177.003 41.646C177.003 38.8632 177.446 36.3734 178.78 34.1764Z" fill="#00153C"/>
<path d="M233.724 27.5861V55.7073H226.763V44.1367H215.952V55.7073H208.993V27.5861H215.952V38.571H226.763V27.5861H233.724Z" fill="#00153C"/>
<path d="M259.192 27.5861V33.1518H251.639V55.8538H244.68V33.1518H237.127V27.5861H259.192Z" fill="#00153C"/>
<path d="M268.674 54.096C266.451 52.9242 264.674 51.1666 263.342 48.9697C262.009 46.7727 261.416 44.2828 261.416 41.4999C261.416 38.7171 262.009 36.2273 263.342 34.0303C264.674 31.8332 266.451 30.0756 268.674 28.904C270.895 27.7323 273.412 27 276.077 27C278.744 27 281.261 27.5858 283.482 28.904C285.705 30.0756 287.482 31.8332 288.814 34.0303C290.147 36.2273 290.74 38.7171 290.74 41.4999C290.74 44.2828 290.147 46.7727 288.814 48.9697C287.482 51.1666 285.705 52.9242 283.482 54.096C281.261 55.2677 278.744 56 276.077 56C273.412 56 271.042 55.4141 268.674 54.096ZM281.558 47.505C282.891 46.0405 283.631 43.99 283.631 41.4999C283.631 39.01 282.891 36.9595 281.558 35.495C280.224 34.0303 278.3 33.298 276.077 33.298C273.709 33.298 271.932 34.0303 270.598 35.495C269.265 36.9595 268.525 39.01 268.525 41.4999C268.525 43.99 269.265 46.0405 270.598 47.505C271.932 48.9697 273.856 49.702 276.077 49.702C278.447 49.702 280.224 48.9697 281.558 47.505Z" fill="#00153C"/>
<path d="M333.683 27.5861L326.279 55.7073H317.837L313.246 37.1064L308.508 55.7073H300.066L292.81 27.5861H300.213L304.361 48.0913L309.395 27.5861H317.097L321.985 48.0913L326.13 27.5861H333.683Z" fill="#00153C"/>
<path d="M344.198 33.0053V38.7175H353.528V43.9901H344.198V50.1418H354.713V55.7073H337.239V27.5861H354.713V33.1518H344.198V33.0053Z" fill="#00153C"/>
<path d="M373.671 55.7073L367.748 45.0155H366.118V55.7073H359.159V27.5861H370.857C373.08 27.5861 375.004 28.0255 376.634 28.7578C378.262 29.4901 379.446 30.6619 380.188 31.9801C380.928 33.2983 381.372 34.9094 381.372 36.5205C381.372 38.4244 380.779 40.0357 379.743 41.5003C378.706 42.965 377.078 43.9901 375.004 44.5761L381.52 55.7073H373.671ZM366.118 40.182H370.413C371.746 40.182 372.634 39.8892 373.227 39.3032C373.82 38.7175 374.116 37.8387 374.116 36.667C374.116 35.6417 373.82 34.7629 373.227 34.1769C372.634 33.5912 371.597 33.2981 370.413 33.2981H366.118V40.182Z" fill="#00153C"/>
<path d="M414.247 36.0804C413.654 34.9087 412.765 34.0299 411.58 33.4441C410.396 32.8582 409.063 32.5653 407.582 32.5653C405.952 32.5653 404.472 33.0047 403.139 33.737C401.807 34.4693 400.77 35.4946 400.03 36.9592C399.289 38.4239 398.993 39.8885 398.993 41.7926C398.993 43.6965 399.437 45.3078 400.177 46.626C400.917 47.944 401.954 49.1159 403.288 49.8482C404.621 50.5804 406.102 51.0198 407.879 51.0198C410.1 51.0198 411.877 50.4339 413.21 49.2622C414.542 48.0906 415.431 46.4795 415.875 44.5754H406.102V40.3279H421.503V45.1613C421.059 47.0654 420.319 48.9694 419.133 50.5805C417.949 52.1915 416.319 53.5097 414.394 54.5351C412.47 55.5602 410.247 55.9996 407.73 55.9996C405.065 55.9996 402.547 55.4139 400.326 54.242C398.104 53.0703 396.326 51.3127 395.142 49.1159C393.958 46.9189 393.218 44.429 393.218 41.7926C393.218 39.1562 393.809 36.5198 395.142 34.3229C396.326 32.1259 398.104 30.5148 400.326 29.1966C402.547 28.0248 404.916 27.439 407.73 27.439C410.987 27.439 413.654 28.1713 416.024 29.7824C418.392 31.3936 420.022 33.4441 420.91 36.2269H414.247V36.0804Z" fill="#00153C"/>
<path d="M440.311 55.7069L434.092 44.7221H431.425V55.7069H425.798V27.7321H436.46C438.681 27.7321 440.459 28.1715 442.088 28.9038C443.718 29.6362 444.753 30.6614 445.495 31.9796C446.236 33.2978 446.679 34.7625 446.679 36.3736C446.679 38.2776 446.086 39.8886 445.05 41.3534C444.013 42.8179 442.385 43.8433 440.164 44.4292L446.976 55.8535H440.311V55.7069ZM431.425 40.6211H436.164C437.646 40.6211 438.83 40.1817 439.571 39.4492C440.311 38.717 440.755 37.6918 440.755 36.3736C440.755 35.0554 440.311 34.0301 439.571 33.4443C438.83 32.7119 437.646 32.419 436.164 32.419H431.425V40.6211Z" fill="#00153C"/>
<path d="M457.49 54.0956C455.269 52.924 453.491 51.1663 452.158 48.9693C450.827 46.7723 450.234 44.2824 450.234 41.4997C450.234 38.7169 450.827 36.3734 452.158 34.1764C453.491 31.9794 455.269 30.2219 457.49 29.0501C459.712 27.8784 462.081 27.1461 464.747 27.1461C467.412 27.1461 469.93 27.732 472.003 29.0501C474.224 30.2219 476.001 31.9794 477.187 34.1764C478.519 36.3734 479.112 38.8633 479.112 41.4997C479.112 44.2824 478.519 46.7723 477.187 48.9693C475.854 51.1663 474.077 52.924 472.003 54.0956C469.782 55.2673 467.412 55.9998 464.747 55.9998C462.23 55.9998 459.712 55.4138 457.49 54.0956ZM469.338 49.8481C470.67 49.1159 471.707 47.9442 472.447 46.626C473.187 45.3078 473.484 43.5502 473.484 41.6462C473.484 39.7421 473.187 38.131 472.447 36.6663C471.707 35.2017 470.67 34.1764 469.338 33.4441C468.005 32.7118 466.524 32.2724 464.895 32.2724C463.118 32.2724 461.637 32.7118 460.304 33.4441C458.972 34.1764 457.935 35.2017 457.195 36.6663C456.455 38.131 456.158 39.7421 456.158 41.6462C456.158 43.5502 456.455 45.1612 457.195 46.626C457.935 48.0905 458.972 49.1159 460.304 49.8481C461.637 50.5804 463.118 51.0198 464.895 51.0198C466.524 51.0198 468.005 50.5804 469.338 49.8481Z" fill="#00153C"/>
<path d="M489.183 27.7321V45.0149C489.183 46.9191 489.627 48.3836 490.664 49.409C491.701 50.4341 493.034 50.8735 494.811 50.8735C496.587 50.8735 498.069 50.4341 499.106 49.409C500.141 48.3836 500.587 46.9191 500.587 45.0149V27.7321H506.362V45.0149C506.362 47.3585 505.769 49.409 504.732 51.02C503.695 52.6311 502.364 53.9493 500.587 54.6816C498.809 55.5604 496.883 55.8535 494.811 55.8535C492.738 55.8535 490.811 55.4141 489.034 54.6816C487.257 53.8028 485.926 52.6311 484.889 51.02C483.852 49.409 483.406 47.3585 483.406 45.0149V27.7321H489.183Z" fill="#00153C"/>
<path d="M531.389 40.6211C530.649 41.9393 529.612 42.9645 527.984 43.8433C526.502 44.5755 524.577 45.0149 522.207 45.0149H517.469V55.7069H511.841V27.7321H522.207C524.43 27.7321 526.207 28.1715 527.835 28.9038C529.316 29.6362 530.502 30.6614 531.242 31.9796C531.982 33.2978 532.426 34.7625 532.426 36.3736C532.426 37.8382 532.13 39.3029 531.389 40.6211ZM525.467 39.3029C526.207 38.5706 526.651 37.5453 526.651 36.3736C526.651 33.5907 525.17 32.2725 522.06 32.2725H517.616V40.4746H522.06C523.54 40.4746 524.725 40.0352 525.467 39.3029Z" fill="#00153C"/>
<path d="M35.0918 78.3523C-3.65062 64.4337 0.0985884 20.206 0.0985884 20.206C0.804988 66.0997 35.0918 75.8265 35.0918 75.8265C35.0918 75.8265 69.3785 66.0459 70.0845 20.206C70.0845 20.206 73.8885 64.4337 35.0918 78.3523Z" fill="#2566AF"/>
<path d="M69.2155 15.7994C43.1881 19.8836 35.0919 4.46039 35.0919 4.46039C35.0919 4.46039 27.05 19.8836 1.02249 15.7994C1.02249 15.7994 27.4847 17.4654 35.1462 0C42.7534 17.4654 69.2155 15.7994 69.2155 15.7994Z" fill="#2566AF"/>
<path d="M64.8145 20.2061C64.8145 20.2061 63.8905 20.2599 62.3695 20.2599C56.6095 20.2599 42.0471 19.1851 35.0919 9.082C28.1368 19.1851 13.5744 20.2599 7.81468 20.2599C6.29318 20.2599 5.36948 20.2061 5.36948 20.2061C5.36948 20.2061 2.43528 45.1413 19.8232 62.0155C20.3122 62.5529 20.8556 63.0366 21.4533 63.5202C23.8985 65.6698 26.724 67.6582 29.9299 69.4316C30.9623 69.969 32.049 70.5064 33.1358 71.0438C33.7878 71.3125 34.3855 71.6349 35.0376 71.9036C35.6896 71.6349 36.3417 71.3662 36.9394 71.0438C38.0805 70.5064 39.1129 69.969 40.1453 69.4316C43.8402 67.4432 46.9374 65.1324 49.5999 62.6604C50.1433 62.123 50.6867 61.5856 51.2301 61.0482C67.6395 44.174 64.8145 20.2061 64.8145 20.2061ZM60.6305 40.3047C58.8915 46.4848 56.1205 51.9662 52.3715 56.5878C52.0451 57.0178 51.7191 57.3939 51.3387 57.8238V37.0804L54.5445 35.7369V26.0637C54.5445 26.0637 54.5445 26.0637 54.4905 26.0637C54.0015 25.8488 53.4575 25.6338 52.9145 25.4189V33.856C50.9584 33.2111 47.6438 32.405 42.9708 32.0826C41.7754 31.9751 40.4713 31.9214 39.1129 31.9214C38.8955 31.9214 38.7325 31.9214 38.5152 31.9214C38.6782 31.9214 38.8955 31.9751 39.1129 31.9751C39.4389 32.0288 39.8193 32.0288 40.1453 32.0826C45.9594 32.7812 49.9803 34.1247 52.1535 34.9308L50.741 35.5219L49.763 35.9518V59.5435C45.7963 63.6277 41.0147 66.9058 35.4179 69.3779C35.3093 69.4316 35.2549 69.4316 35.1463 69.4853V58.8449H31.7774V47.3446C31.7774 45.41 33.2445 43.7978 35.1463 43.5291C35.3093 43.5291 35.4723 43.4754 35.6353 43.4754C37.8088 43.4754 39.5476 45.195 39.5476 47.3446V58.9524H41.7211V47.3446C41.7211 44.0128 39.0042 41.3258 35.6353 41.3258C35.4723 41.3258 35.3093 41.3258 35.1463 41.3258V22.3557C34.3312 22.3557 33.5161 22.4094 32.7011 22.4094V26.8698C31.397 26.9236 30.0929 27.031 28.7888 27.1923V22.7319C27.3217 22.8931 25.9633 23.1618 24.6048 23.4305V27.9446C23.2464 28.2133 21.9423 28.5895 20.6926 28.9657V24.5053C19.2798 24.9352 17.9214 25.4726 16.6716 26.01V34.7158C16.6716 34.7158 20.6926 32.7275 28.7888 32.1363C29.9842 32.0288 31.2883 31.9751 32.7011 31.9751C32.8641 31.9751 33.0814 31.9751 33.2988 31.9751C33.0814 31.9751 32.9184 32.0288 32.7011 32.0288C32.3751 32.0826 31.9947 32.0826 31.6687 32.1363C22.703 33.2648 17.9214 35.7906 17.9214 35.7906L19.8775 37.1341V59.0061C19.1711 58.2538 18.5191 57.4477 17.867 56.6416C14.1721 52.02 11.4009 46.5385 9.60778 40.3585C7.37998 32.6737 7.32558 25.7413 7.43428 22.4632C7.54298 22.4632 7.70598 22.4632 7.81468 22.4632C13.5744 22.4632 27.1587 21.4421 35.0919 12.6288C43.0251 21.4421 56.6095 22.4632 62.3695 22.4632C62.4775 22.4632 62.6405 22.4632 62.7495 22.4632C62.9125 25.6876 62.8035 32.62 60.6305 40.3047Z" fill="#2566AF"/>
<path d="M40.2537 69.4316C39.2213 69.969 38.1345 70.5064 37.0478 71.0438H33.1898C32.0488 70.5064 31.0163 69.969 29.9839 69.4316H40.2537Z" fill="#2566AF"/>
<path opacity="0.69" d="M44.7636 27.4607C43.7855 27.2995 42.7531 27.192 41.6664 27.0845C41.3947 27.0845 41.0687 27.0308 40.797 27.0308C39.9276 26.9771 39.0039 26.9233 38.0801 26.8696V22.3555C39.2755 22.4092 40.471 22.4629 41.6664 22.5704V26.3322L44.7636 27.4607Z" fill="#2566AF"/>
<path opacity="0.69" d="M51.3385 28.9117C50.7951 28.7505 50.1974 28.5893 49.5997 28.4281C49.491 28.4281 49.3823 28.3743 49.2737 28.3743C48.2956 28.1056 47.2089 27.8907 46.1221 27.7294V23.2153C47.3175 23.4303 48.4586 23.6452 49.5454 23.9677V27.8907C49.98 28.0519 50.7951 28.5893 51.3385 28.9117Z" fill="#2566AF"/>
</svg>
