<svg width="46" height="52" viewBox="0 0 46 52" fill="none" xmlns="http://www.w3.org/2000/svg">
<path d="M22.9988 52.0002C-2.39262 42.7629 0.0646168 13.4104 0.0646168 13.4104C0.527574 43.8685 22.9988 50.3239 22.9988 50.3239C22.9988 50.3239 45.47 43.8328 45.933 13.4104C45.933 13.4104 48.4258 42.7629 22.9988 52.0002Z" fill="white"/>
<path d="M45.3631 10.4856C28.3049 13.1961 22.9987 2.96021 22.9987 2.96021C22.9987 2.96021 17.7281 13.1961 0.669922 10.4856C0.669922 10.4856 18.013 11.5912 23.0343 0C28.02 11.5912 45.3631 10.4856 45.3631 10.4856Z" fill="white"/>
<path d="M42.4776 13.41C42.4776 13.41 41.8722 13.4457 40.8751 13.4457C37.1002 13.4457 27.5561 12.7324 22.9978 6.02734C18.4394 12.7324 8.89541 13.4457 5.1205 13.4457C4.12336 13.4457 3.51796 13.41 3.51796 13.41C3.51796 13.41 1.5949 29.9587 12.9908 41.1576C13.3113 41.5142 13.6674 41.8352 14.0591 42.1562C15.6617 43.5828 17.5135 44.9025 19.6146 46.0794C20.2912 46.4361 21.0035 46.7927 21.7157 47.1494C22.1431 47.3277 22.5348 47.5417 22.9621 47.72C23.3895 47.5417 23.8169 47.3634 24.2086 47.1494C24.9564 46.7927 25.633 46.4361 26.3097 46.0794C28.7313 44.7598 30.7612 43.2262 32.5062 41.5856C32.8623 41.2289 33.2184 40.8723 33.5745 40.5156C44.3294 29.3167 42.4776 13.41 42.4776 13.41ZM39.7354 26.7489C38.5958 30.8503 36.7797 34.4882 34.3224 37.5554C34.1087 37.8407 33.895 38.0903 33.6458 38.3757V24.6089L35.7469 23.7173V17.2975C35.7469 17.2975 35.7469 17.2975 35.7113 17.2975C35.3908 17.1549 35.0346 17.0122 34.6785 16.8695V22.469C33.3965 22.0411 31.2241 21.5061 28.1616 21.2921C27.3781 21.2207 26.5233 21.1851 25.633 21.1851C25.4906 21.1851 25.3838 21.1851 25.2413 21.1851C25.3482 21.1851 25.4906 21.2208 25.633 21.2208C25.8467 21.2564 26.096 21.2564 26.3097 21.2921C30.1202 21.7557 32.7555 22.6474 34.18 23.1823L33.254 23.5747L32.6131 23.86V39.517C30.0133 42.2276 26.8795 44.4032 23.2114 46.0438C23.1402 46.0794 23.1046 46.0794 23.0334 46.1151V39.0533H20.8254V31.421C20.8254 30.137 21.787 29.0671 23.0334 28.8888C23.1402 28.8888 23.2471 28.8531 23.3539 28.8531C24.7784 28.8531 25.918 29.9944 25.918 31.421V39.1246H27.3424V31.421C27.3424 29.2097 25.5618 27.4265 23.3539 27.4265C23.2471 27.4265 23.1402 27.4265 23.0334 27.4265V14.8366C22.4992 14.8366 21.965 14.8723 21.4308 14.8723V17.8325C20.5762 17.8682 19.7214 17.9395 18.8668 18.0465V15.0863C17.9052 15.1933 17.0149 15.3716 16.1246 15.5499V18.5458C15.2343 18.7242 14.3796 18.9738 13.5606 19.2235V16.2632C12.6347 16.5486 11.7444 16.9052 10.9253 17.2619V23.0397C10.9253 23.0397 13.5606 21.7201 18.8668 21.3277C19.6502 21.2564 20.5049 21.2208 21.4308 21.2208C21.5377 21.2208 21.6801 21.2208 21.8226 21.2208C21.6801 21.2208 21.5733 21.2564 21.4308 21.2564C21.2172 21.2921 20.9679 21.2921 20.7542 21.3277C14.8782 22.0767 11.7444 23.753 11.7444 23.753L13.0264 24.6446V39.1603C12.5634 38.661 12.1361 38.126 11.7087 37.591C9.28709 34.5238 7.4709 30.886 6.2957 26.7845C4.83561 21.6844 4.79999 17.0835 4.87122 14.908C4.94244 14.908 5.04928 14.908 5.1205 14.908C8.89541 14.908 17.7984 14.2303 22.9978 8.38122C28.1971 14.2303 37.1002 14.908 40.8751 14.908C40.9462 14.908 41.0531 14.908 41.1243 14.908C41.2312 17.0479 41.1599 21.6487 39.7354 26.7489Z" fill="white"/>
<path d="M26.3825 46.0796C25.7059 46.4362 24.9937 46.7929 24.2814 47.1495H21.753C21.0051 46.7929 20.3285 46.4362 19.6519 46.0796H26.3825Z" fill="white"/>
<path opacity="0.69" d="M29.3373 18.2254C28.6963 18.1184 28.0196 18.0471 27.3074 17.9757C27.1293 17.9757 26.9157 17.9401 26.7376 17.9401C26.1678 17.9044 25.5624 17.8687 24.957 17.8331V14.8372C25.7405 14.8728 26.5239 14.9085 27.3074 14.9798V17.4764L29.3373 18.2254Z" fill="white"/>
<path opacity="0.69" d="M33.6473 19.188C33.2911 19.081 32.8994 18.974 32.5077 18.867C32.4364 18.867 32.3652 18.8313 32.294 18.8313C31.653 18.653 30.9407 18.5103 30.2285 18.4034V15.4075C31.0119 15.5501 31.7598 15.6928 32.472 15.9068V18.5103C32.757 18.6173 33.2911 18.974 33.6473 19.188Z" fill="white"/>
</svg>
