<svg width="956" height="424" viewBox="0 0 956 424" fill="none" xmlns="http://www.w3.org/2000/svg">
<path d="M478.3 298.53C330.809 245.542 345.082 77.1688 345.082 77.1688C347.772 251.884 478.3 288.914 478.3 288.914C478.3 288.914 608.828 251.68 611.518 77.1688C611.518 77.1688 625.998 245.542 478.3 298.53Z" fill="white"/>
<path d="M608.204 60.3927C509.118 75.9411 478.296 17.2253 478.296 17.2253C478.296 17.2253 447.68 75.9411 348.595 60.3927C348.595 60.3927 449.335 66.7348 478.503 0.244751C507.463 66.7348 608.204 60.3927 608.204 60.3927Z" fill="white"/>
<path d="M591.451 77.1681C591.451 77.1681 587.935 77.3727 582.143 77.3727C560.215 77.3727 504.777 73.281 478.299 34.8191C451.821 73.281 396.383 77.3727 374.455 77.3727C368.663 77.3727 365.147 77.1681 365.147 77.1681C365.147 77.1681 353.976 172.095 420.171 236.335C422.033 238.381 424.102 240.222 426.377 242.063C435.686 250.247 446.443 257.817 458.647 264.568C462.578 266.614 466.715 268.659 470.852 270.705C473.334 271.728 475.61 272.956 478.092 273.979C480.574 272.956 483.057 271.933 485.332 270.705C489.676 268.659 493.607 266.614 497.537 264.568C511.603 256.998 523.394 248.201 533.531 238.79C535.599 236.744 537.668 234.698 539.736 232.653C602.208 168.413 591.451 77.1681 591.451 77.1681ZM575.523 153.683C568.904 177.21 558.354 198.078 544.08 215.672C542.839 217.309 541.598 218.741 540.15 220.377V141.408L552.355 136.293V99.4679C552.355 99.4679 552.355 99.4679 552.148 99.4679C550.286 98.6495 548.218 97.8312 546.149 97.0129V129.133C538.702 126.678 526.084 123.609 508.294 122.381C503.743 121.972 498.778 121.768 493.607 121.768C492.779 121.768 492.159 121.768 491.331 121.768C491.952 121.768 492.779 121.972 493.607 121.972C494.848 122.177 496.296 122.177 497.537 122.381C519.671 125.041 534.979 130.156 543.253 133.224L537.875 135.475L534.151 137.111V226.924C519.05 242.473 500.847 254.952 479.54 264.363C479.126 264.568 478.92 264.568 478.506 264.772V224.265H465.681V180.483C465.681 173.118 471.266 166.981 478.506 165.958C479.126 165.958 479.747 165.753 480.368 165.753C488.642 165.753 495.261 172.3 495.261 180.483V224.674H503.536V180.483C503.536 167.799 493.193 157.57 480.368 157.57C479.747 157.57 479.126 157.57 478.506 157.57V85.3515C475.403 85.3515 472.3 85.5561 469.197 85.5561V102.537C464.233 102.741 459.268 103.15 454.303 103.764V86.7836C448.718 87.3974 443.547 88.4203 438.375 89.4432V106.628C433.204 107.651 428.239 109.083 423.481 110.515V93.5349C418.103 95.1716 412.931 97.2175 408.174 99.2633V132.406C408.174 132.406 423.481 124.836 454.303 122.586C458.854 122.177 463.819 121.972 469.197 121.972C469.818 121.972 470.645 121.972 471.473 121.972C470.645 121.972 470.025 122.177 469.197 122.177C467.956 122.381 466.508 122.381 465.267 122.586C431.135 126.882 412.931 136.498 412.931 136.498L420.378 141.612V224.878C417.689 222.014 415.207 218.945 412.725 215.877C398.658 198.282 388.108 177.415 381.282 153.887C372.801 124.632 372.594 98.2404 373.007 85.7607C373.421 85.7607 374.042 85.7607 374.455 85.7607C396.383 85.7607 448.098 81.8736 478.299 48.3217C508.501 81.8736 560.215 85.7607 582.143 85.7607C582.556 85.7607 583.177 85.7607 583.591 85.7607C584.211 98.0358 583.797 124.427 575.523 153.683Z" fill="white"/>
<path d="M497.951 264.568C494.021 266.614 489.883 268.66 485.746 270.706H471.059C466.715 268.66 462.785 266.614 458.854 264.568H497.951Z" fill="white"/>
<path opacity="0.69" d="M515.123 104.788C511.4 104.174 507.47 103.765 503.332 103.356C502.298 103.356 501.057 103.151 500.023 103.151C496.713 102.947 493.196 102.742 489.68 102.538V85.3525C494.231 85.5571 498.781 85.7617 503.332 86.1709V100.492L515.123 104.788Z" fill="white"/>
<path opacity="0.69" d="M540.148 110.312C538.079 109.698 535.804 109.084 533.528 108.471C533.114 108.471 532.701 108.266 532.287 108.266C528.563 107.243 524.426 106.425 520.289 105.811V88.6259C524.84 89.4442 529.184 90.2625 533.321 91.49V106.425C534.976 107.038 538.079 109.084 540.148 110.312Z" fill="white"/>
<path d="M86.6697 363.974L71.0355 423.35H53.2125L43.5193 384.075L33.5134 423.35H16.0031L0.681641 363.974H16.3158L25.071 407.269L35.7022 363.974H51.9618L62.2804 407.269L71.0355 363.974H86.6697Z" fill="white"/>
<path d="M131.386 412.835H108.873L105.12 423.35H89.7988L111.687 363.974H128.884L150.772 423.35H135.138L131.386 412.835ZM127.634 401.702L120.129 380.055L112.625 401.702H127.634Z" fill="white"/>
<path d="M200.484 363.974V375.726H184.538V423.659H169.841V375.726H153.895V363.974H200.484Z" fill="white"/>
<path d="M209.24 377.889C211.742 373.251 215.494 369.849 219.872 367.066C224.562 364.592 229.565 363.355 235.506 363.355C242.698 363.355 248.639 365.21 253.954 368.921C259.27 372.632 262.397 377.58 264.273 384.074H248.013C246.763 381.6 245.199 379.745 243.01 378.508C240.822 377.271 238.32 376.652 235.506 376.652C231.128 376.652 227.376 378.199 224.562 381.291C221.748 384.383 220.497 388.404 220.497 393.661C220.497 398.918 221.748 402.938 224.562 406.031C227.376 409.123 231.128 410.669 235.506 410.669C238.32 410.669 240.822 410.051 243.01 408.814C245.199 407.577 246.763 405.721 248.013 403.247H264.273C262.709 409.742 259.27 414.689 253.954 418.4C248.951 422.111 242.698 423.967 235.506 423.967C229.565 423.967 224.562 422.73 219.872 420.256C215.181 417.782 211.742 414.071 209.24 409.432C206.739 404.794 205.488 399.536 205.488 393.661C205.488 387.785 206.426 382.528 209.24 377.889Z" fill="white"/>
<path d="M325.257 363.974V423.349H310.561V398.919H287.735V423.349H273.039V363.974H287.735V387.168H310.561V363.974H325.257Z" fill="white"/>
<path d="M379.027 363.974V375.726H363.081V423.659H348.384V375.726H332.438V363.974H379.027Z" fill="white"/>
<path d="M399.047 419.947C394.357 417.473 390.605 413.762 387.79 409.124C384.976 404.485 383.726 399.228 383.726 393.352C383.726 387.476 384.976 382.219 387.79 377.581C390.605 372.942 394.357 369.231 399.047 366.757C403.737 364.283 409.053 362.737 414.681 362.737C420.31 362.737 425.625 363.974 430.315 366.757C435.006 369.231 438.758 372.942 441.572 377.581C444.386 382.219 445.637 387.476 445.637 393.352C445.637 399.228 444.386 404.485 441.572 409.124C438.758 413.762 435.006 417.473 430.315 419.947C425.625 422.421 420.31 423.967 414.681 423.967C409.053 423.967 404.05 422.73 399.047 419.947ZM426.251 406.031C429.065 402.939 430.628 398.609 430.628 393.352C430.628 388.095 429.065 383.766 426.251 380.673C423.436 377.581 419.372 376.034 414.681 376.034C409.678 376.034 405.926 377.581 403.112 380.673C400.298 383.766 398.734 388.095 398.734 393.352C398.734 398.609 400.298 402.939 403.112 406.031C405.926 409.124 409.991 410.67 414.681 410.67C419.684 410.67 423.436 409.124 426.251 406.031Z" fill="white"/>
<path d="M536.308 363.974L520.673 423.349H502.85L493.157 384.075L483.151 423.349H465.328L450.007 363.974H465.641L474.396 407.269L485.027 363.974H501.287L511.606 407.269L520.361 363.974H536.308Z" fill="white"/>
<path d="M558.511 375.416V387.477H578.21V398.61H558.511V411.598H580.711V423.349H543.814V363.974H580.711V375.726H558.511V375.416Z" fill="white"/>
<path d="M620.738 423.349L608.23 400.774H604.791V423.349H590.095V363.974H614.797C619.487 363.974 623.552 364.902 626.991 366.448C630.431 367.994 632.932 370.468 634.496 373.252C636.059 376.035 636.997 379.436 636.997 382.838C636.997 386.858 635.747 390.26 633.558 393.353C631.369 396.445 627.929 398.61 623.552 399.847L637.31 423.349H620.738ZM604.791 390.569H613.859C616.673 390.569 618.549 389.951 619.8 388.714C621.05 387.477 621.676 385.621 621.676 383.147C621.676 380.983 621.05 379.127 619.8 377.89C618.549 376.653 616.36 376.035 613.859 376.035H604.791V390.569Z" fill="white"/>
<path d="M706.409 381.909C705.158 379.435 703.282 377.58 700.781 376.343C698.279 375.106 695.465 374.487 692.338 374.487C688.899 374.487 685.772 375.415 682.958 376.961C680.143 378.508 677.955 380.672 676.391 383.765C674.828 386.857 674.202 389.95 674.202 393.97C674.202 397.99 675.141 401.392 676.704 404.175C678.267 406.958 680.456 409.432 683.27 410.978C686.084 412.525 689.211 413.452 692.963 413.452C697.654 413.452 701.406 412.215 704.22 409.741C707.034 407.267 708.91 403.866 709.848 399.846H689.211V390.877H721.73V401.083C720.792 405.103 719.229 409.123 716.727 412.525C714.226 415.926 710.786 418.709 706.722 420.874C702.657 423.039 697.966 423.967 692.651 423.967C687.023 423.967 681.707 422.73 677.017 420.256C672.326 417.782 668.574 414.071 666.073 409.432C663.571 404.793 662.008 399.536 662.008 393.97C662.008 388.403 663.259 382.837 666.073 378.198C668.574 373.56 672.326 370.158 677.017 367.375C681.707 364.901 686.71 363.664 692.651 363.664C699.53 363.664 705.158 365.21 710.161 368.612C715.164 372.013 718.604 376.343 720.48 382.219H706.409V381.909Z" fill="white"/>
<path d="M761.442 423.348L748.309 400.155H742.681V423.348H730.799V364.283H753.312C758.002 364.283 761.755 365.21 765.194 366.757C768.634 368.303 770.822 370.468 772.386 373.251C773.949 376.034 774.887 379.126 774.887 382.528C774.887 386.548 773.637 389.95 771.448 393.042C769.259 396.135 765.819 398.3 761.129 399.537L775.513 423.658H761.442V423.348ZM742.681 391.496H752.687C755.814 391.496 758.315 390.568 759.878 389.022C761.442 387.476 762.38 385.311 762.38 382.528C762.38 379.745 761.442 377.58 759.878 376.343C758.315 374.797 755.814 374.178 752.687 374.178H742.681V391.496Z" fill="white"/>
<path d="M797.712 419.947C793.022 417.473 789.27 413.762 786.456 409.123C783.641 404.485 782.391 399.227 782.391 393.352C782.391 387.476 783.641 382.528 786.456 377.889C789.27 373.251 793.022 369.54 797.712 367.066C802.402 364.592 807.405 363.046 813.034 363.046C818.662 363.046 823.978 364.283 828.355 367.066C833.045 369.54 836.798 373.251 839.299 377.889C842.113 382.528 843.364 387.785 843.364 393.352C843.364 399.227 842.113 404.485 839.299 409.123C836.485 413.762 832.733 417.473 828.355 419.947C823.665 422.421 818.662 423.967 813.034 423.967C807.718 423.967 802.402 422.73 797.712 419.947ZM822.727 410.979C825.541 409.432 827.73 406.958 829.293 404.175C830.857 401.392 831.482 397.681 831.482 393.661C831.482 389.641 830.857 386.239 829.293 383.147C827.73 380.054 825.541 377.889 822.727 376.343C819.913 374.797 816.786 373.869 813.346 373.869C809.594 373.869 806.467 374.797 803.653 376.343C800.839 377.889 798.65 380.054 797.087 383.147C795.523 386.239 794.898 389.641 794.898 393.661C794.898 397.681 795.523 401.083 797.087 404.175C798.65 407.268 800.839 409.432 803.653 410.979C806.467 412.525 809.594 413.453 813.346 413.453C816.786 413.453 819.913 412.525 822.727 410.979Z" fill="white"/>
<path d="M864.627 364.283V400.774C864.627 404.794 865.565 407.886 867.754 410.051C869.943 412.216 872.757 413.143 876.509 413.143C880.262 413.143 883.388 412.216 885.577 410.051C887.766 407.886 888.704 404.794 888.704 400.774V364.283H900.899V400.774C900.899 405.721 899.648 410.051 897.459 413.453C895.27 416.854 892.456 419.638 888.704 421.184C884.952 423.039 880.887 423.658 876.509 423.658C872.132 423.658 868.067 422.73 864.315 421.184C860.562 419.328 857.748 416.854 855.559 413.453C853.371 410.051 852.433 405.721 852.433 400.774V364.283H864.627Z" fill="white"/>
<path d="M953.743 391.496C952.18 394.279 949.991 396.444 946.551 398.3C943.424 399.846 939.36 400.774 934.357 400.774H924.351V423.348H912.469V364.283H934.357C939.047 364.283 942.799 365.21 946.239 366.757C949.365 368.303 951.867 370.468 953.43 373.251C954.994 376.034 955.932 379.126 955.932 382.528C955.932 385.621 955.306 388.713 953.743 391.496ZM941.236 388.713C942.799 387.167 943.737 385.002 943.737 382.528C943.737 376.652 940.61 373.869 934.044 373.869H924.663V391.187H934.044C937.171 391.187 939.672 390.259 941.236 388.713Z" fill="white"/>
</svg>
